<mxfile host="app.diagrams.net" modified="2023-03-30T08:32:24.915Z" agent="Mozilla/5.0 (Windows NT 10.0; Win64; x64; rv:109.0) Gecko/20100101 Firefox/111.0" etag="lHXrqX04k_JfP-u-OaVm" version="21.1.1" type="github">
  <diagram name="Page-1" id="Kr4GfyW1VHrGZUdi-3SE">
    <mxGraphModel dx="1514" dy="566" grid="1" gridSize="10" guides="1" tooltips="1" connect="1" arrows="1" fold="1" page="0" pageScale="1" pageWidth="850" pageHeight="1100" math="0" shadow="0">
      <root>
        <mxCell id="0" />
        <mxCell id="1" parent="0" />
        <mxCell id="5phcaH57rgOtB4ff2jJI-5" value="&lt;font style=&quot;font-size: 13px;&quot; color=&quot;#0000ff&quot;&gt;e&lt;/font&gt;&lt;sub style=&quot;font-size: 13px;&quot;&gt;&lt;font style=&quot;font-size: 13px;&quot; color=&quot;#0000ff&quot;&gt;0&lt;/font&gt;&lt;br style=&quot;font-size: 13px;&quot;&gt;x := 0&lt;br style=&quot;font-size: 13px;&quot;&gt;&lt;/sub&gt;" style="edgeStyle=orthogonalEdgeStyle;rounded=0;orthogonalLoop=1;jettySize=auto;html=1;fontStyle=1;fontSize=13;labelBackgroundColor=none;" parent="1" source="5phcaH57rgOtB4ff2jJI-2" target="5phcaH57rgOtB4ff2jJI-4" edge="1">
          <mxGeometry relative="1" as="geometry" />
        </mxCell>
        <mxCell id="5phcaH57rgOtB4ff2jJI-2" value="l&lt;sub style=&quot;font-size: 13px;&quot;&gt;0&lt;/sub&gt;" style="ellipse;whiteSpace=wrap;html=1;fontStyle=1;fontSize=13;" parent="1" vertex="1">
          <mxGeometry x="225" y="160" width="40" height="40" as="geometry" />
        </mxCell>
        <mxCell id="5phcaH57rgOtB4ff2jJI-7" value="&lt;font style=&quot;font-size: 13px;&quot; color=&quot;#0000ff&quot;&gt;e&lt;/font&gt;&lt;sub style=&quot;font-size: 13px;&quot;&gt;&lt;font style=&quot;font-size: 13px;&quot; color=&quot;#0000ff&quot;&gt;4&lt;/font&gt;&lt;br style=&quot;font-size: 13px;&quot;&gt;x, y := 0&lt;br style=&quot;font-size: 13px;&quot;&gt;&lt;/sub&gt;" style="edgeStyle=orthogonalEdgeStyle;rounded=0;orthogonalLoop=1;jettySize=auto;html=1;fontStyle=1;fontSize=13;labelBackgroundColor=none;" parent="1" source="5phcaH57rgOtB4ff2jJI-4" target="5phcaH57rgOtB4ff2jJI-6" edge="1">
          <mxGeometry relative="1" as="geometry" />
        </mxCell>
        <mxCell id="5phcaH57rgOtB4ff2jJI-12" value="&lt;font style=&quot;font-size: 13px;&quot; color=&quot;#0000ff&quot;&gt;e&lt;/font&gt;&lt;sub style=&quot;font-size: 13px;&quot;&gt;&lt;font style=&quot;font-size: 13px;&quot; color=&quot;#0000ff&quot;&gt;1&lt;/font&gt;&lt;br style=&quot;font-size: 13px;&quot;&gt;5 ≤ x&lt;br style=&quot;font-size: 13px;&quot;&gt;&lt;/sub&gt;" style="edgeStyle=orthogonalEdgeStyle;rounded=0;orthogonalLoop=1;jettySize=auto;html=1;fontStyle=1;fontSize=13;" parent="1" source="5phcaH57rgOtB4ff2jJI-4" target="5phcaH57rgOtB4ff2jJI-11" edge="1">
          <mxGeometry y="20" relative="1" as="geometry">
            <mxPoint as="offset" />
          </mxGeometry>
        </mxCell>
        <mxCell id="5phcaH57rgOtB4ff2jJI-4" value="l&lt;sub style=&quot;font-size: 13px;&quot;&gt;1&lt;/sub&gt;" style="ellipse;whiteSpace=wrap;html=1;fontStyle=1;fontSize=13;" parent="1" vertex="1">
          <mxGeometry x="345" y="160" width="40" height="40" as="geometry" />
        </mxCell>
        <mxCell id="5phcaH57rgOtB4ff2jJI-6" value="l&lt;sub style=&quot;font-size: 13px;&quot;&gt;4&lt;/sub&gt;" style="ellipse;whiteSpace=wrap;html=1;fontStyle=1;fontSize=13;" parent="1" vertex="1">
          <mxGeometry x="465" y="160" width="40" height="40" as="geometry" />
        </mxCell>
        <mxCell id="5phcaH57rgOtB4ff2jJI-8" value="l&lt;sub style=&quot;font-size: 13px;&quot;&gt;6&lt;/sub&gt;" style="ellipse;whiteSpace=wrap;html=1;fontStyle=1;fontSize=13;" parent="1" vertex="1">
          <mxGeometry x="585" y="160" width="40" height="40" as="geometry" />
        </mxCell>
        <mxCell id="5phcaH57rgOtB4ff2jJI-14" value="&lt;font style=&quot;font-size: 13px;&quot; color=&quot;#0000ff&quot;&gt;e&lt;/font&gt;&lt;sub style=&quot;font-size: 13px;&quot;&gt;&lt;font style=&quot;font-size: 13px;&quot; color=&quot;#0000ff&quot;&gt;2&lt;/font&gt;&lt;br style=&quot;font-size: 13px;&quot;&gt;&lt;/sub&gt;" style="edgeStyle=orthogonalEdgeStyle;rounded=0;orthogonalLoop=1;jettySize=auto;html=1;fontStyle=1;fontSize=13;labelBackgroundColor=none;" parent="1" source="5phcaH57rgOtB4ff2jJI-11" target="5phcaH57rgOtB4ff2jJI-13" edge="1">
          <mxGeometry y="10" relative="1" as="geometry">
            <mxPoint as="offset" />
          </mxGeometry>
        </mxCell>
        <mxCell id="5phcaH57rgOtB4ff2jJI-11" value="l&lt;sub style=&quot;font-size: 13px;&quot;&gt;2&lt;/sub&gt;" style="ellipse;whiteSpace=wrap;html=1;fontStyle=1;fontSize=13;" parent="1" vertex="1">
          <mxGeometry x="345" y="40" width="40" height="40" as="geometry" />
        </mxCell>
        <mxCell id="5phcaH57rgOtB4ff2jJI-13" value="l&lt;sub style=&quot;font-size: 13px;&quot;&gt;3&lt;/sub&gt;" style="ellipse;whiteSpace=wrap;html=1;fontStyle=1;fontSize=13;" parent="1" vertex="1">
          <mxGeometry x="465" y="40" width="40" height="40" as="geometry" />
        </mxCell>
        <mxCell id="5phcaH57rgOtB4ff2jJI-17" value="&lt;font style=&quot;font-size: 13px;&quot; color=&quot;#0000ff&quot;&gt;e&lt;/font&gt;&lt;sub style=&quot;font-size: 13px;&quot;&gt;&lt;font style=&quot;font-size: 13px;&quot; color=&quot;#0000ff&quot;&gt;3&lt;/font&gt;&lt;br style=&quot;font-size: 13px;&quot;&gt;&lt;/sub&gt;" style="endArrow=classic;html=1;rounded=0;exitX=1;exitY=1;exitDx=0;exitDy=0;entryX=0;entryY=0;entryDx=0;entryDy=0;fontStyle=1;fontSize=13;labelBackgroundColor=none;" parent="1" source="5phcaH57rgOtB4ff2jJI-13" target="5phcaH57rgOtB4ff2jJI-8" edge="1">
          <mxGeometry y="14" width="50" height="50" relative="1" as="geometry">
            <mxPoint x="565" y="120" as="sourcePoint" />
            <mxPoint x="615" y="70" as="targetPoint" />
            <mxPoint as="offset" />
          </mxGeometry>
        </mxCell>
        <mxCell id="5phcaH57rgOtB4ff2jJI-21" value="&lt;font style=&quot;font-size: 13px;&quot; color=&quot;#0000ff&quot;&gt;e&lt;/font&gt;&lt;sub style=&quot;font-size: 13px;&quot;&gt;&lt;font style=&quot;font-size: 13px;&quot; color=&quot;#0000ff&quot;&gt;8&lt;/font&gt;&lt;br style=&quot;font-size: 13px;&quot;&gt;y ≥ 5000&lt;br style=&quot;font-size: 13px;&quot;&gt;&lt;/sub&gt;" style="edgeStyle=orthogonalEdgeStyle;rounded=0;orthogonalLoop=1;jettySize=auto;html=1;fontStyle=1;fontSize=13;labelBackgroundColor=none;" parent="1" source="5phcaH57rgOtB4ff2jJI-18" target="5phcaH57rgOtB4ff2jJI-20" edge="1">
          <mxGeometry relative="1" as="geometry" />
        </mxCell>
        <mxCell id="5phcaH57rgOtB4ff2jJI-18" value="l&lt;sub style=&quot;font-size: 13px;&quot;&gt;5&lt;/sub&gt;" style="ellipse;whiteSpace=wrap;html=1;fontStyle=1;fontSize=13;" parent="1" vertex="1">
          <mxGeometry x="465" y="280" width="40" height="40" as="geometry" />
        </mxCell>
        <mxCell id="5phcaH57rgOtB4ff2jJI-20" value="l&lt;sub style=&quot;font-size: 13px;&quot;&gt;7&lt;/sub&gt;" style="ellipse;whiteSpace=wrap;html=1;fontStyle=1;fontSize=13;" parent="1" vertex="1">
          <mxGeometry x="585" y="280" width="40" height="40" as="geometry" />
        </mxCell>
        <mxCell id="5phcaH57rgOtB4ff2jJI-23" value="&lt;font style=&quot;font-size: 13px;&quot; color=&quot;#0000ff&quot;&gt;e&lt;/font&gt;&lt;sub style=&quot;font-size: 13px;&quot;&gt;&lt;font style=&quot;font-size: 13px;&quot; color=&quot;#0000ff&quot;&gt;6&lt;/font&gt;&lt;br style=&quot;font-size: 13px;&quot;&gt;x := 0&lt;br style=&quot;font-size: 13px;&quot;&gt;&lt;/sub&gt;" style="endArrow=classic;html=1;rounded=0;exitX=0;exitY=1;exitDx=0;exitDy=0;entryX=0;entryY=0;entryDx=0;entryDy=0;fontStyle=1;fontSize=13;" parent="1" source="5phcaH57rgOtB4ff2jJI-6" target="5phcaH57rgOtB4ff2jJI-18" edge="1">
          <mxGeometry y="-20" width="50" height="50" relative="1" as="geometry">
            <mxPoint x="355" y="270" as="sourcePoint" />
            <mxPoint x="405" y="220" as="targetPoint" />
            <Array as="points">
              <mxPoint x="445" y="240" />
            </Array>
            <mxPoint x="-3" y="-10" as="offset" />
          </mxGeometry>
        </mxCell>
        <mxCell id="5phcaH57rgOtB4ff2jJI-24" value="&lt;font style=&quot;font-size: 13px;&quot; color=&quot;#0000ff&quot;&gt;e&lt;/font&gt;&lt;sub style=&quot;font-size: 13px;&quot;&gt;&lt;font style=&quot;font-size: 13px;&quot; color=&quot;#0000ff&quot;&gt;7&lt;/font&gt;&lt;br style=&quot;font-size: 13px;&quot;&gt;&lt;/sub&gt;" style="endArrow=classic;html=1;rounded=0;exitX=1;exitY=0;exitDx=0;exitDy=0;entryX=1;entryY=1;entryDx=0;entryDy=0;fontStyle=1;fontSize=13;" parent="1" source="5phcaH57rgOtB4ff2jJI-18" target="5phcaH57rgOtB4ff2jJI-6" edge="1">
          <mxGeometry y="-10" width="50" height="50" relative="1" as="geometry">
            <mxPoint x="515" y="290" as="sourcePoint" />
            <mxPoint x="565" y="240" as="targetPoint" />
            <Array as="points">
              <mxPoint x="525" y="240" />
            </Array>
            <mxPoint x="1" y="5" as="offset" />
          </mxGeometry>
        </mxCell>
        <mxCell id="5phcaH57rgOtB4ff2jJI-25" value="" style="endArrow=classic;html=1;rounded=0;entryX=0.5;entryY=0;entryDx=0;entryDy=0;exitX=0.5;exitY=1;exitDx=0;exitDy=0;fontStyle=1;fontSize=13;" parent="1" source="5phcaH57rgOtB4ff2jJI-26" target="5phcaH57rgOtB4ff2jJI-2" edge="1">
          <mxGeometry width="50" height="50" relative="1" as="geometry">
            <mxPoint x="245" y="130" as="sourcePoint" />
            <mxPoint x="275" y="60" as="targetPoint" />
          </mxGeometry>
        </mxCell>
        <mxCell id="5phcaH57rgOtB4ff2jJI-26" value="Start" style="text;html=1;strokeColor=none;fillColor=none;align=center;verticalAlign=middle;whiteSpace=wrap;rounded=0;fontStyle=1;fontSize=13;" parent="1" vertex="1">
          <mxGeometry x="215" y="100" width="60" height="30" as="geometry" />
        </mxCell>
        <mxCell id="5phcaH57rgOtB4ff2jJI-28" value="y ≥ 5" style="text;html=1;strokeColor=none;fillColor=none;align=center;verticalAlign=middle;whiteSpace=wrap;rounded=0;fontStyle=1;fontSize=13;" parent="1" vertex="1">
          <mxGeometry x="335" y="200" width="60" height="30" as="geometry" />
        </mxCell>
        <mxCell id="5phcaH57rgOtB4ff2jJI-29" value="x ≤ p" style="text;html=1;strokeColor=none;fillColor=none;align=center;verticalAlign=middle;whiteSpace=wrap;rounded=0;fontStyle=1;fontSize=13;" parent="1" vertex="1">
          <mxGeometry x="455" y="320" width="60" height="30" as="geometry" />
        </mxCell>
        <mxCell id="5phcaH57rgOtB4ff2jJI-30" value="x ≥ r" style="text;html=1;strokeColor=none;fillColor=none;align=center;verticalAlign=middle;whiteSpace=wrap;rounded=0;fontStyle=1;fontSize=13;" parent="1" vertex="1">
          <mxGeometry x="575" y="320" width="60" height="30" as="geometry" />
        </mxCell>
        <mxCell id="5phcaH57rgOtB4ff2jJI-31" value="x ≤ p" style="text;html=1;strokeColor=none;fillColor=none;align=center;verticalAlign=middle;whiteSpace=wrap;rounded=0;fontStyle=1;fontSize=13;" parent="1" vertex="1">
          <mxGeometry x="455" y="130" width="60" height="30" as="geometry" />
        </mxCell>
        <mxCell id="5phcaH57rgOtB4ff2jJI-32" value="y ≤ 8" style="text;html=1;strokeColor=none;fillColor=none;align=center;verticalAlign=middle;whiteSpace=wrap;rounded=0;fontStyle=1;fontSize=13;" parent="1" vertex="1">
          <mxGeometry x="335" y="10" width="60" height="30" as="geometry" />
        </mxCell>
        <mxCell id="5phcaH57rgOtB4ff2jJI-9" value="&lt;font style=&quot;font-size: 13px;&quot; color=&quot;#0000ff&quot;&gt;e&lt;/font&gt;&lt;sub style=&quot;font-size: 13px;&quot;&gt;&lt;font style=&quot;font-size: 13px;&quot; color=&quot;#0000ff&quot;&gt;5&lt;/font&gt;&lt;br style=&quot;font-size: 13px;&quot;&gt;x ≥ q&lt;br style=&quot;font-size: 13px;&quot;&gt;&lt;/sub&gt;" style="edgeStyle=orthogonalEdgeStyle;rounded=0;orthogonalLoop=1;jettySize=auto;html=1;fontStyle=1;fontSize=13;labelBackgroundColor=none;" parent="1" source="5phcaH57rgOtB4ff2jJI-6" target="5phcaH57rgOtB4ff2jJI-8" edge="1">
          <mxGeometry relative="1" as="geometry" />
        </mxCell>
        <mxCell id="5phcaH57rgOtB4ff2jJI-130" value="" style="group" parent="1" vertex="1" connectable="0">
          <mxGeometry x="360" y="390" width="120" height="60" as="geometry" />
        </mxCell>
        <mxCell id="5phcaH57rgOtB4ff2jJI-91" value="" style="rounded=0;whiteSpace=wrap;html=1;" parent="5phcaH57rgOtB4ff2jJI-130" vertex="1">
          <mxGeometry width="120" height="60" as="geometry" />
        </mxCell>
        <mxCell id="5phcaH57rgOtB4ff2jJI-69" value="l&lt;sub style=&quot;font-size: 13px;&quot;&gt;0&lt;/sub&gt;" style="ellipse;whiteSpace=wrap;html=1;fontStyle=1;fontSize=13;" parent="5phcaH57rgOtB4ff2jJI-130" vertex="1">
          <mxGeometry x="40" y="10" width="40" height="40" as="geometry" />
        </mxCell>
        <mxCell id="5phcaH57rgOtB4ff2jJI-131" value="" style="group" parent="1" vertex="1" connectable="0">
          <mxGeometry x="340" y="510" width="160" height="60" as="geometry" />
        </mxCell>
        <mxCell id="5phcaH57rgOtB4ff2jJI-92" value="" style="rounded=0;whiteSpace=wrap;html=1;" parent="5phcaH57rgOtB4ff2jJI-131" vertex="1">
          <mxGeometry width="160" height="60" as="geometry" />
        </mxCell>
        <mxCell id="5phcaH57rgOtB4ff2jJI-93" value="l&lt;sub style=&quot;font-size: 13px;&quot;&gt;0&lt;/sub&gt;" style="ellipse;whiteSpace=wrap;html=1;fontStyle=1;fontSize=13;" parent="5phcaH57rgOtB4ff2jJI-131" vertex="1">
          <mxGeometry x="20" y="10" width="40" height="40" as="geometry" />
        </mxCell>
        <mxCell id="5phcaH57rgOtB4ff2jJI-94" value="l&lt;sub style=&quot;font-size: 13px;&quot;&gt;1&lt;/sub&gt;" style="ellipse;whiteSpace=wrap;html=1;fontStyle=1;fontSize=13;" parent="5phcaH57rgOtB4ff2jJI-131" vertex="1">
          <mxGeometry x="100" y="10" width="40" height="40" as="geometry" />
        </mxCell>
        <mxCell id="5phcaH57rgOtB4ff2jJI-95" value="" style="edgeStyle=orthogonalEdgeStyle;rounded=0;orthogonalLoop=1;jettySize=auto;html=1;" parent="5phcaH57rgOtB4ff2jJI-131" source="5phcaH57rgOtB4ff2jJI-93" target="5phcaH57rgOtB4ff2jJI-94" edge="1">
          <mxGeometry relative="1" as="geometry" />
        </mxCell>
        <mxCell id="5phcaH57rgOtB4ff2jJI-132" value="" style="group" parent="1" vertex="1" connectable="0">
          <mxGeometry x="160" y="630" width="240" height="60" as="geometry" />
        </mxCell>
        <mxCell id="5phcaH57rgOtB4ff2jJI-96" value="" style="rounded=0;whiteSpace=wrap;html=1;" parent="5phcaH57rgOtB4ff2jJI-132" vertex="1">
          <mxGeometry width="240" height="60" as="geometry" />
        </mxCell>
        <mxCell id="5phcaH57rgOtB4ff2jJI-98" value="l&lt;sub style=&quot;font-size: 13px;&quot;&gt;0&lt;/sub&gt;" style="ellipse;whiteSpace=wrap;html=1;fontStyle=1;fontSize=13;" parent="5phcaH57rgOtB4ff2jJI-132" vertex="1">
          <mxGeometry x="20" y="10" width="40" height="40" as="geometry" />
        </mxCell>
        <mxCell id="5phcaH57rgOtB4ff2jJI-99" value="l&lt;sub style=&quot;font-size: 13px;&quot;&gt;1&lt;/sub&gt;" style="ellipse;whiteSpace=wrap;html=1;fontStyle=1;fontSize=13;" parent="5phcaH57rgOtB4ff2jJI-132" vertex="1">
          <mxGeometry x="100" y="10" width="40" height="40" as="geometry" />
        </mxCell>
        <mxCell id="5phcaH57rgOtB4ff2jJI-97" value="" style="edgeStyle=orthogonalEdgeStyle;rounded=0;orthogonalLoop=1;jettySize=auto;html=1;" parent="5phcaH57rgOtB4ff2jJI-132" source="5phcaH57rgOtB4ff2jJI-98" target="5phcaH57rgOtB4ff2jJI-99" edge="1">
          <mxGeometry relative="1" as="geometry" />
        </mxCell>
        <mxCell id="5phcaH57rgOtB4ff2jJI-100" value="l&lt;sub style=&quot;font-size: 13px;&quot;&gt;4&lt;/sub&gt;" style="ellipse;whiteSpace=wrap;html=1;fontStyle=1;fontSize=13;" parent="5phcaH57rgOtB4ff2jJI-132" vertex="1">
          <mxGeometry x="180" y="10" width="40" height="40" as="geometry" />
        </mxCell>
        <mxCell id="5phcaH57rgOtB4ff2jJI-101" value="" style="edgeStyle=orthogonalEdgeStyle;rounded=0;orthogonalLoop=1;jettySize=auto;html=1;" parent="5phcaH57rgOtB4ff2jJI-132" source="5phcaH57rgOtB4ff2jJI-99" target="5phcaH57rgOtB4ff2jJI-100" edge="1">
          <mxGeometry relative="1" as="geometry" />
        </mxCell>
        <mxCell id="5phcaH57rgOtB4ff2jJI-133" value="" style="group" parent="1" vertex="1" connectable="0">
          <mxGeometry x="305" y="780" width="320" height="60" as="geometry" />
        </mxCell>
        <mxCell id="5phcaH57rgOtB4ff2jJI-113" value="" style="rounded=0;whiteSpace=wrap;html=1;" parent="5phcaH57rgOtB4ff2jJI-133" vertex="1">
          <mxGeometry width="320" height="60" as="geometry" />
        </mxCell>
        <mxCell id="5phcaH57rgOtB4ff2jJI-115" value="l&lt;sub style=&quot;font-size: 13px;&quot;&gt;0&lt;/sub&gt;" style="ellipse;whiteSpace=wrap;html=1;fontStyle=1;fontSize=13;" parent="5phcaH57rgOtB4ff2jJI-133" vertex="1">
          <mxGeometry x="20" y="10" width="40" height="40" as="geometry" />
        </mxCell>
        <mxCell id="5phcaH57rgOtB4ff2jJI-117" value="l&lt;sub style=&quot;font-size: 13px;&quot;&gt;1&lt;/sub&gt;" style="ellipse;whiteSpace=wrap;html=1;fontStyle=1;fontSize=13;" parent="5phcaH57rgOtB4ff2jJI-133" vertex="1">
          <mxGeometry x="100" y="10" width="40" height="40" as="geometry" />
        </mxCell>
        <mxCell id="5phcaH57rgOtB4ff2jJI-114" value="" style="edgeStyle=orthogonalEdgeStyle;rounded=0;orthogonalLoop=1;jettySize=auto;html=1;" parent="5phcaH57rgOtB4ff2jJI-133" source="5phcaH57rgOtB4ff2jJI-115" target="5phcaH57rgOtB4ff2jJI-117" edge="1">
          <mxGeometry relative="1" as="geometry" />
        </mxCell>
        <mxCell id="5phcaH57rgOtB4ff2jJI-119" value="l&lt;sub style=&quot;font-size: 13px;&quot;&gt;4&lt;/sub&gt;" style="ellipse;whiteSpace=wrap;html=1;fontStyle=1;fontSize=13;" parent="5phcaH57rgOtB4ff2jJI-133" vertex="1">
          <mxGeometry x="180" y="10" width="40" height="40" as="geometry" />
        </mxCell>
        <mxCell id="5phcaH57rgOtB4ff2jJI-116" value="" style="edgeStyle=orthogonalEdgeStyle;rounded=0;orthogonalLoop=1;jettySize=auto;html=1;" parent="5phcaH57rgOtB4ff2jJI-133" source="5phcaH57rgOtB4ff2jJI-117" target="5phcaH57rgOtB4ff2jJI-119" edge="1">
          <mxGeometry relative="1" as="geometry" />
        </mxCell>
        <mxCell id="5phcaH57rgOtB4ff2jJI-120" value="l&lt;sub style=&quot;font-size: 13px;&quot;&gt;5&lt;/sub&gt;" style="ellipse;whiteSpace=wrap;html=1;fontStyle=1;fontSize=13;" parent="5phcaH57rgOtB4ff2jJI-133" vertex="1">
          <mxGeometry x="260" y="10" width="40" height="40" as="geometry" />
        </mxCell>
        <mxCell id="5phcaH57rgOtB4ff2jJI-118" value="" style="edgeStyle=orthogonalEdgeStyle;rounded=0;orthogonalLoop=1;jettySize=auto;html=1;" parent="5phcaH57rgOtB4ff2jJI-133" source="5phcaH57rgOtB4ff2jJI-119" target="5phcaH57rgOtB4ff2jJI-120" edge="1">
          <mxGeometry relative="1" as="geometry" />
        </mxCell>
        <mxCell id="5phcaH57rgOtB4ff2jJI-134" value="" style="group;strokeColor=default;" parent="1" vertex="1" connectable="0">
          <mxGeometry x="-55" y="780" width="320" height="100" as="geometry" />
        </mxCell>
        <mxCell id="5phcaH57rgOtB4ff2jJI-104" value="" style="rounded=0;whiteSpace=wrap;html=1;fillColor=#f8cecc;strokeColor=#b85450;" parent="5phcaH57rgOtB4ff2jJI-134" vertex="1">
          <mxGeometry width="320" height="60" as="geometry" />
        </mxCell>
        <mxCell id="5phcaH57rgOtB4ff2jJI-106" value="l&lt;sub style=&quot;font-size: 13px;&quot;&gt;0&lt;/sub&gt;" style="ellipse;whiteSpace=wrap;html=1;fontStyle=1;fontSize=13;" parent="5phcaH57rgOtB4ff2jJI-134" vertex="1">
          <mxGeometry x="20" y="10" width="40" height="40" as="geometry" />
        </mxCell>
        <mxCell id="5phcaH57rgOtB4ff2jJI-108" value="l&lt;sub style=&quot;font-size: 13px;&quot;&gt;1&lt;/sub&gt;" style="ellipse;whiteSpace=wrap;html=1;fontStyle=1;fontSize=13;" parent="5phcaH57rgOtB4ff2jJI-134" vertex="1">
          <mxGeometry x="100" y="10" width="40" height="40" as="geometry" />
        </mxCell>
        <mxCell id="5phcaH57rgOtB4ff2jJI-105" value="" style="edgeStyle=orthogonalEdgeStyle;rounded=0;orthogonalLoop=1;jettySize=auto;html=1;" parent="5phcaH57rgOtB4ff2jJI-134" source="5phcaH57rgOtB4ff2jJI-106" target="5phcaH57rgOtB4ff2jJI-108" edge="1">
          <mxGeometry relative="1" as="geometry" />
        </mxCell>
        <mxCell id="5phcaH57rgOtB4ff2jJI-109" value="l&lt;sub style=&quot;font-size: 13px;&quot;&gt;4&lt;/sub&gt;" style="ellipse;whiteSpace=wrap;html=1;fontStyle=1;fontSize=13;" parent="5phcaH57rgOtB4ff2jJI-134" vertex="1">
          <mxGeometry x="180" y="10" width="40" height="40" as="geometry" />
        </mxCell>
        <mxCell id="5phcaH57rgOtB4ff2jJI-107" value="" style="edgeStyle=orthogonalEdgeStyle;rounded=0;orthogonalLoop=1;jettySize=auto;html=1;" parent="5phcaH57rgOtB4ff2jJI-134" source="5phcaH57rgOtB4ff2jJI-108" target="5phcaH57rgOtB4ff2jJI-109" edge="1">
          <mxGeometry relative="1" as="geometry" />
        </mxCell>
        <mxCell id="5phcaH57rgOtB4ff2jJI-110" value="l&lt;sub style=&quot;font-size: 13px;&quot;&gt;6&lt;/sub&gt;" style="ellipse;whiteSpace=wrap;html=1;fontStyle=1;fontSize=13;" parent="5phcaH57rgOtB4ff2jJI-134" vertex="1">
          <mxGeometry x="260" y="10" width="40" height="40" as="geometry" />
        </mxCell>
        <mxCell id="5phcaH57rgOtB4ff2jJI-111" value="" style="edgeStyle=orthogonalEdgeStyle;rounded=0;orthogonalLoop=1;jettySize=auto;html=1;" parent="5phcaH57rgOtB4ff2jJI-134" source="5phcaH57rgOtB4ff2jJI-109" target="5phcaH57rgOtB4ff2jJI-110" edge="1">
          <mxGeometry relative="1" as="geometry" />
        </mxCell>
        <mxCell id="5phcaH57rgOtB4ff2jJI-112" value="Path is realizable and ends in unsafe location l&lt;sub&gt;6&lt;/sub&gt; &lt;br&gt;Make it unrealizable and cut this branch here " style="text;html=1;strokeColor=none;fillColor=none;align=center;verticalAlign=middle;whiteSpace=wrap;rounded=0;" parent="5phcaH57rgOtB4ff2jJI-134" vertex="1">
          <mxGeometry y="60" width="320" height="40" as="geometry" />
        </mxCell>
        <mxCell id="5phcaH57rgOtB4ff2jJI-151" value="" style="endArrow=classic;html=1;rounded=0;exitX=0.5;exitY=1;exitDx=0;exitDy=0;entryX=0.5;entryY=0;entryDx=0;entryDy=0;" parent="1" source="5phcaH57rgOtB4ff2jJI-91" target="5phcaH57rgOtB4ff2jJI-92" edge="1">
          <mxGeometry width="50" height="50" relative="1" as="geometry">
            <mxPoint x="80" y="480" as="sourcePoint" />
            <mxPoint x="130" y="430" as="targetPoint" />
          </mxGeometry>
        </mxCell>
        <mxCell id="5phcaH57rgOtB4ff2jJI-152" value="" style="endArrow=classic;html=1;rounded=0;exitX=0.25;exitY=1;exitDx=0;exitDy=0;entryX=0.75;entryY=0;entryDx=0;entryDy=0;" parent="1" source="5phcaH57rgOtB4ff2jJI-92" target="5phcaH57rgOtB4ff2jJI-96" edge="1">
          <mxGeometry width="50" height="50" relative="1" as="geometry">
            <mxPoint x="150" y="530" as="sourcePoint" />
            <mxPoint x="200" y="480" as="targetPoint" />
          </mxGeometry>
        </mxCell>
        <mxCell id="5phcaH57rgOtB4ff2jJI-153" value="" style="endArrow=classic;html=1;rounded=0;exitX=0.25;exitY=1;exitDx=0;exitDy=0;entryX=0.75;entryY=0;entryDx=0;entryDy=0;" parent="1" source="5phcaH57rgOtB4ff2jJI-96" target="5phcaH57rgOtB4ff2jJI-104" edge="1">
          <mxGeometry width="50" height="50" relative="1" as="geometry">
            <mxPoint x="240" y="720" as="sourcePoint" />
            <mxPoint x="80" y="730" as="targetPoint" />
          </mxGeometry>
        </mxCell>
        <mxCell id="5phcaH57rgOtB4ff2jJI-155" value="" style="endArrow=classic;html=1;rounded=0;exitX=0.75;exitY=1;exitDx=0;exitDy=0;entryX=0.25;entryY=0;entryDx=0;entryDy=0;" parent="1" source="5phcaH57rgOtB4ff2jJI-96" target="5phcaH57rgOtB4ff2jJI-113" edge="1">
          <mxGeometry width="50" height="50" relative="1" as="geometry">
            <mxPoint x="400" y="730" as="sourcePoint" />
            <mxPoint x="390" y="760" as="targetPoint" />
          </mxGeometry>
        </mxCell>
        <mxCell id="5phcaH57rgOtB4ff2jJI-156" value="" style="endArrow=classic;html=1;rounded=0;exitX=0.25;exitY=1;exitDx=0;exitDy=0;entryX=0.75;entryY=0;entryDx=0;entryDy=0;" parent="1" source="5phcaH57rgOtB4ff2jJI-113" target="5phcaH57rgOtB4ff2jJI-122" edge="1">
          <mxGeometry width="50" height="50" relative="1" as="geometry">
            <mxPoint x="210" y="930" as="sourcePoint" />
            <mxPoint x="260" y="880" as="targetPoint" />
          </mxGeometry>
        </mxCell>
        <mxCell id="5phcaH57rgOtB4ff2jJI-157" value="" style="endArrow=classic;html=1;rounded=0;exitX=0.75;exitY=1;exitDx=0;exitDy=0;entryX=0.25;entryY=0;entryDx=0;entryDy=0;" parent="1" source="5phcaH57rgOtB4ff2jJI-113" target="5phcaH57rgOtB4ff2jJI-140" edge="1">
          <mxGeometry width="50" height="50" relative="1" as="geometry">
            <mxPoint x="174" y="840" as="sourcePoint" />
            <mxPoint x="470" y="960" as="targetPoint" />
          </mxGeometry>
        </mxCell>
        <mxCell id="5phcaH57rgOtB4ff2jJI-170" value="" style="endArrow=classic;html=1;rounded=0;exitX=1;exitY=0.5;exitDx=0;exitDy=0;entryX=0;entryY=0.5;entryDx=0;entryDy=0;" parent="1" source="5phcaH57rgOtB4ff2jJI-140" target="5phcaH57rgOtB4ff2jJI-159" edge="1">
          <mxGeometry width="50" height="50" relative="1" as="geometry">
            <mxPoint x="850" y="890" as="sourcePoint" />
            <mxPoint x="900" y="840" as="targetPoint" />
          </mxGeometry>
        </mxCell>
        <mxCell id="5phcaH57rgOtB4ff2jJI-174" value="" style="group" parent="1" vertex="1" connectable="0">
          <mxGeometry x="1110" y="960" width="395" height="60" as="geometry" />
        </mxCell>
        <mxCell id="5phcaH57rgOtB4ff2jJI-159" value="" style="rounded=0;whiteSpace=wrap;html=1;" parent="5phcaH57rgOtB4ff2jJI-174" vertex="1">
          <mxGeometry width="395" height="60" as="geometry" />
        </mxCell>
        <mxCell id="5phcaH57rgOtB4ff2jJI-161" value="l&lt;sub style=&quot;font-size: 13px;&quot;&gt;0&lt;/sub&gt;" style="ellipse;whiteSpace=wrap;html=1;fontStyle=1;fontSize=13;" parent="5phcaH57rgOtB4ff2jJI-174" vertex="1">
          <mxGeometry x="20" y="10" width="40" height="40" as="geometry" />
        </mxCell>
        <mxCell id="5phcaH57rgOtB4ff2jJI-163" value="l&lt;sub style=&quot;font-size: 13px;&quot;&gt;1&lt;/sub&gt;" style="ellipse;whiteSpace=wrap;html=1;fontStyle=1;fontSize=13;" parent="5phcaH57rgOtB4ff2jJI-174" vertex="1">
          <mxGeometry x="100" y="10" width="40" height="40" as="geometry" />
        </mxCell>
        <mxCell id="5phcaH57rgOtB4ff2jJI-160" value="" style="edgeStyle=orthogonalEdgeStyle;rounded=0;orthogonalLoop=1;jettySize=auto;html=1;" parent="5phcaH57rgOtB4ff2jJI-174" source="5phcaH57rgOtB4ff2jJI-161" target="5phcaH57rgOtB4ff2jJI-163" edge="1">
          <mxGeometry relative="1" as="geometry" />
        </mxCell>
        <mxCell id="5phcaH57rgOtB4ff2jJI-165" value="l&lt;sub style=&quot;font-size: 13px;&quot;&gt;4&lt;/sub&gt;" style="ellipse;whiteSpace=wrap;html=1;fontStyle=1;fontSize=13;fillColor=#d5e8d4;strokeColor=#82b366;" parent="5phcaH57rgOtB4ff2jJI-174" vertex="1">
          <mxGeometry x="180" y="10" width="40" height="40" as="geometry" />
        </mxCell>
        <mxCell id="5phcaH57rgOtB4ff2jJI-162" value="" style="edgeStyle=orthogonalEdgeStyle;rounded=0;orthogonalLoop=1;jettySize=auto;html=1;" parent="5phcaH57rgOtB4ff2jJI-174" source="5phcaH57rgOtB4ff2jJI-163" target="5phcaH57rgOtB4ff2jJI-165" edge="1">
          <mxGeometry relative="1" as="geometry" />
        </mxCell>
        <mxCell id="5phcaH57rgOtB4ff2jJI-167" value="l&lt;sub style=&quot;font-size: 13px;&quot;&gt;5&lt;/sub&gt;" style="ellipse;whiteSpace=wrap;html=1;fontStyle=1;fontSize=13;fillColor=#d5e8d4;strokeColor=#82b366;" parent="5phcaH57rgOtB4ff2jJI-174" vertex="1">
          <mxGeometry x="260" y="10" width="40" height="40" as="geometry" />
        </mxCell>
        <mxCell id="5phcaH57rgOtB4ff2jJI-164" value="" style="edgeStyle=orthogonalEdgeStyle;rounded=0;orthogonalLoop=1;jettySize=auto;html=1;" parent="5phcaH57rgOtB4ff2jJI-174" source="5phcaH57rgOtB4ff2jJI-165" target="5phcaH57rgOtB4ff2jJI-167" edge="1">
          <mxGeometry relative="1" as="geometry" />
        </mxCell>
        <mxCell id="5phcaH57rgOtB4ff2jJI-168" value="l&lt;sub style=&quot;font-size: 13px;&quot;&gt;4&lt;/sub&gt;" style="ellipse;whiteSpace=wrap;html=1;fontStyle=1;fontSize=13;" parent="5phcaH57rgOtB4ff2jJI-174" vertex="1">
          <mxGeometry x="335" y="10" width="40" height="40" as="geometry" />
        </mxCell>
        <mxCell id="5phcaH57rgOtB4ff2jJI-166" value="" style="edgeStyle=orthogonalEdgeStyle;rounded=0;orthogonalLoop=1;jettySize=auto;html=1;" parent="5phcaH57rgOtB4ff2jJI-174" source="5phcaH57rgOtB4ff2jJI-167" target="5phcaH57rgOtB4ff2jJI-168" edge="1">
          <mxGeometry relative="1" as="geometry" />
        </mxCell>
        <mxCell id="5phcaH57rgOtB4ff2jJI-176" value="" style="group;strokeColor=default;" parent="1" vertex="1" connectable="0">
          <mxGeometry x="-130" y="960" width="395" height="100" as="geometry" />
        </mxCell>
        <mxCell id="5phcaH57rgOtB4ff2jJI-150" value="Path is unrealizable. Cut this branch here" style="text;html=1;strokeColor=none;fillColor=none;align=center;verticalAlign=middle;whiteSpace=wrap;rounded=0;" parent="5phcaH57rgOtB4ff2jJI-176" vertex="1">
          <mxGeometry y="60" width="390" height="40" as="geometry" />
        </mxCell>
        <mxCell id="5phcaH57rgOtB4ff2jJI-172" value="" style="group" parent="5phcaH57rgOtB4ff2jJI-176" vertex="1" connectable="0">
          <mxGeometry width="395" height="60" as="geometry" />
        </mxCell>
        <mxCell id="5phcaH57rgOtB4ff2jJI-122" value="" style="rounded=0;whiteSpace=wrap;html=1;fillColor=#f8cecc;strokeColor=#b85450;" parent="5phcaH57rgOtB4ff2jJI-172" vertex="1">
          <mxGeometry width="395" height="60" as="geometry" />
        </mxCell>
        <mxCell id="5phcaH57rgOtB4ff2jJI-124" value="l&lt;sub style=&quot;font-size: 13px;&quot;&gt;0&lt;/sub&gt;" style="ellipse;whiteSpace=wrap;html=1;fontStyle=1;fontSize=13;" parent="5phcaH57rgOtB4ff2jJI-172" vertex="1">
          <mxGeometry x="20" y="10" width="40" height="40" as="geometry" />
        </mxCell>
        <mxCell id="5phcaH57rgOtB4ff2jJI-126" value="l&lt;sub style=&quot;font-size: 13px;&quot;&gt;1&lt;/sub&gt;" style="ellipse;whiteSpace=wrap;html=1;fontStyle=1;fontSize=13;" parent="5phcaH57rgOtB4ff2jJI-172" vertex="1">
          <mxGeometry x="100" y="10" width="40" height="40" as="geometry" />
        </mxCell>
        <mxCell id="5phcaH57rgOtB4ff2jJI-123" value="" style="edgeStyle=orthogonalEdgeStyle;rounded=0;orthogonalLoop=1;jettySize=auto;html=1;" parent="5phcaH57rgOtB4ff2jJI-172" source="5phcaH57rgOtB4ff2jJI-124" target="5phcaH57rgOtB4ff2jJI-126" edge="1">
          <mxGeometry relative="1" as="geometry" />
        </mxCell>
        <mxCell id="5phcaH57rgOtB4ff2jJI-128" value="l&lt;sub style=&quot;font-size: 13px;&quot;&gt;4&lt;/sub&gt;" style="ellipse;whiteSpace=wrap;html=1;fontStyle=1;fontSize=13;" parent="5phcaH57rgOtB4ff2jJI-172" vertex="1">
          <mxGeometry x="180" y="10" width="40" height="40" as="geometry" />
        </mxCell>
        <mxCell id="5phcaH57rgOtB4ff2jJI-125" value="" style="edgeStyle=orthogonalEdgeStyle;rounded=0;orthogonalLoop=1;jettySize=auto;html=1;" parent="5phcaH57rgOtB4ff2jJI-172" source="5phcaH57rgOtB4ff2jJI-126" target="5phcaH57rgOtB4ff2jJI-128" edge="1">
          <mxGeometry relative="1" as="geometry" />
        </mxCell>
        <mxCell id="5phcaH57rgOtB4ff2jJI-129" value="l&lt;sub style=&quot;font-size: 13px;&quot;&gt;5&lt;/sub&gt;" style="ellipse;whiteSpace=wrap;html=1;fontStyle=1;fontSize=13;" parent="5phcaH57rgOtB4ff2jJI-172" vertex="1">
          <mxGeometry x="260" y="10" width="40" height="40" as="geometry" />
        </mxCell>
        <mxCell id="5phcaH57rgOtB4ff2jJI-127" value="" style="edgeStyle=orthogonalEdgeStyle;rounded=0;orthogonalLoop=1;jettySize=auto;html=1;" parent="5phcaH57rgOtB4ff2jJI-172" source="5phcaH57rgOtB4ff2jJI-128" target="5phcaH57rgOtB4ff2jJI-129" edge="1">
          <mxGeometry relative="1" as="geometry" />
        </mxCell>
        <mxCell id="5phcaH57rgOtB4ff2jJI-138" value="l&lt;sub style=&quot;font-size: 13px;&quot;&gt;7&lt;/sub&gt;" style="ellipse;whiteSpace=wrap;html=1;fontStyle=1;fontSize=13;" parent="5phcaH57rgOtB4ff2jJI-172" vertex="1">
          <mxGeometry x="335" y="10" width="40" height="40" as="geometry" />
        </mxCell>
        <mxCell id="5phcaH57rgOtB4ff2jJI-139" value="" style="edgeStyle=orthogonalEdgeStyle;rounded=0;orthogonalLoop=1;jettySize=auto;html=1;" parent="5phcaH57rgOtB4ff2jJI-172" source="5phcaH57rgOtB4ff2jJI-129" target="5phcaH57rgOtB4ff2jJI-138" edge="1">
          <mxGeometry relative="1" as="geometry" />
        </mxCell>
        <mxCell id="5phcaH57rgOtB4ff2jJI-177" value="" style="group;rounded=0;shadow=0;strokeColor=default;" parent="1" vertex="1" connectable="0">
          <mxGeometry x="480" y="960" width="400" height="100" as="geometry" />
        </mxCell>
        <mxCell id="5phcaH57rgOtB4ff2jJI-158" value="Path is realizable and ends with a cycle. Create a new path with cycle constraints." style="text;html=1;strokeColor=none;fillColor=none;align=center;verticalAlign=middle;whiteSpace=wrap;rounded=0;" parent="5phcaH57rgOtB4ff2jJI-177" vertex="1">
          <mxGeometry y="60" width="400" height="40" as="geometry" />
        </mxCell>
        <mxCell id="5phcaH57rgOtB4ff2jJI-173" value="" style="group" parent="5phcaH57rgOtB4ff2jJI-177" vertex="1" connectable="0">
          <mxGeometry width="400" height="60" as="geometry" />
        </mxCell>
        <mxCell id="5phcaH57rgOtB4ff2jJI-140" value="" style="rounded=0;whiteSpace=wrap;html=1;" parent="5phcaH57rgOtB4ff2jJI-173" vertex="1">
          <mxGeometry width="400" height="60" as="geometry" />
        </mxCell>
        <mxCell id="5phcaH57rgOtB4ff2jJI-142" value="l&lt;sub style=&quot;font-size: 13px;&quot;&gt;0&lt;/sub&gt;" style="ellipse;whiteSpace=wrap;html=1;fontStyle=1;fontSize=13;" parent="5phcaH57rgOtB4ff2jJI-173" vertex="1">
          <mxGeometry x="20.253164556962027" y="10" width="40.50632911392405" height="40" as="geometry" />
        </mxCell>
        <mxCell id="5phcaH57rgOtB4ff2jJI-144" value="l&lt;sub style=&quot;font-size: 13px;&quot;&gt;1&lt;/sub&gt;" style="ellipse;whiteSpace=wrap;html=1;fontStyle=1;fontSize=13;" parent="5phcaH57rgOtB4ff2jJI-173" vertex="1">
          <mxGeometry x="101.26582278481013" y="10" width="40.50632911392405" height="40" as="geometry" />
        </mxCell>
        <mxCell id="5phcaH57rgOtB4ff2jJI-141" value="" style="edgeStyle=orthogonalEdgeStyle;rounded=0;orthogonalLoop=1;jettySize=auto;html=1;" parent="5phcaH57rgOtB4ff2jJI-173" source="5phcaH57rgOtB4ff2jJI-142" target="5phcaH57rgOtB4ff2jJI-144" edge="1">
          <mxGeometry relative="1" as="geometry" />
        </mxCell>
        <mxCell id="5phcaH57rgOtB4ff2jJI-146" value="l&lt;sub style=&quot;font-size: 13px;&quot;&gt;4&lt;/sub&gt;" style="ellipse;whiteSpace=wrap;html=1;fontStyle=1;fontSize=13;" parent="5phcaH57rgOtB4ff2jJI-173" vertex="1">
          <mxGeometry x="182.27848101265823" y="10" width="40.50632911392405" height="40" as="geometry" />
        </mxCell>
        <mxCell id="5phcaH57rgOtB4ff2jJI-143" value="" style="edgeStyle=orthogonalEdgeStyle;rounded=0;orthogonalLoop=1;jettySize=auto;html=1;" parent="5phcaH57rgOtB4ff2jJI-173" source="5phcaH57rgOtB4ff2jJI-144" target="5phcaH57rgOtB4ff2jJI-146" edge="1">
          <mxGeometry relative="1" as="geometry" />
        </mxCell>
        <mxCell id="5phcaH57rgOtB4ff2jJI-148" value="l&lt;sub style=&quot;font-size: 13px;&quot;&gt;5&lt;/sub&gt;" style="ellipse;whiteSpace=wrap;html=1;fontStyle=1;fontSize=13;" parent="5phcaH57rgOtB4ff2jJI-173" vertex="1">
          <mxGeometry x="263.29113924050637" y="10" width="40.50632911392405" height="40" as="geometry" />
        </mxCell>
        <mxCell id="5phcaH57rgOtB4ff2jJI-145" value="" style="edgeStyle=orthogonalEdgeStyle;rounded=0;orthogonalLoop=1;jettySize=auto;html=1;" parent="5phcaH57rgOtB4ff2jJI-173" source="5phcaH57rgOtB4ff2jJI-146" target="5phcaH57rgOtB4ff2jJI-148" edge="1">
          <mxGeometry relative="1" as="geometry" />
        </mxCell>
        <mxCell id="5phcaH57rgOtB4ff2jJI-149" value="l&lt;sub style=&quot;font-size: 13px;&quot;&gt;4&lt;/sub&gt;" style="ellipse;whiteSpace=wrap;html=1;fontStyle=1;fontSize=13;" parent="5phcaH57rgOtB4ff2jJI-173" vertex="1">
          <mxGeometry x="339.24050632911394" y="10" width="40.50632911392405" height="40" as="geometry" />
        </mxCell>
        <mxCell id="5phcaH57rgOtB4ff2jJI-147" value="" style="edgeStyle=orthogonalEdgeStyle;rounded=0;orthogonalLoop=1;jettySize=auto;html=1;" parent="5phcaH57rgOtB4ff2jJI-173" source="5phcaH57rgOtB4ff2jJI-148" target="5phcaH57rgOtB4ff2jJI-149" edge="1">
          <mxGeometry relative="1" as="geometry" />
        </mxCell>
        <mxCell id="5phcaH57rgOtB4ff2jJI-180" value="" style="group;strokeColor=default;" parent="1" vertex="1" connectable="0">
          <mxGeometry x="-220" y="1130" width="480" height="100" as="geometry" />
        </mxCell>
        <mxCell id="5phcaH57rgOtB4ff2jJI-181" value="Path is unrealizable. Cut this branch here" style="text;html=1;strokeColor=none;fillColor=none;align=center;verticalAlign=middle;whiteSpace=wrap;rounded=0;" parent="5phcaH57rgOtB4ff2jJI-180" vertex="1">
          <mxGeometry y="60" width="480" height="40" as="geometry" />
        </mxCell>
        <mxCell id="5phcaH57rgOtB4ff2jJI-182" value="" style="group;fillColor=#f8cecc;strokeColor=#b85450;" parent="5phcaH57rgOtB4ff2jJI-180" vertex="1" connectable="0">
          <mxGeometry width="480" height="60" as="geometry" />
        </mxCell>
        <mxCell id="5phcaH57rgOtB4ff2jJI-183" value="" style="rounded=0;whiteSpace=wrap;html=1;fillColor=#f8cecc;strokeColor=#b85450;" parent="5phcaH57rgOtB4ff2jJI-182" vertex="1">
          <mxGeometry width="480" height="60" as="geometry" />
        </mxCell>
        <mxCell id="5phcaH57rgOtB4ff2jJI-184" value="l&lt;sub style=&quot;font-size: 13px;&quot;&gt;0&lt;/sub&gt;" style="ellipse;whiteSpace=wrap;html=1;fontStyle=1;fontSize=13;" parent="5phcaH57rgOtB4ff2jJI-182" vertex="1">
          <mxGeometry x="20" y="10" width="40" height="40" as="geometry" />
        </mxCell>
        <mxCell id="5phcaH57rgOtB4ff2jJI-185" value="l&lt;sub style=&quot;font-size: 13px;&quot;&gt;1&lt;/sub&gt;" style="ellipse;whiteSpace=wrap;html=1;fontStyle=1;fontSize=13;" parent="5phcaH57rgOtB4ff2jJI-182" vertex="1">
          <mxGeometry x="100" y="10" width="40" height="40" as="geometry" />
        </mxCell>
        <mxCell id="5phcaH57rgOtB4ff2jJI-186" value="" style="edgeStyle=orthogonalEdgeStyle;rounded=0;orthogonalLoop=1;jettySize=auto;html=1;" parent="5phcaH57rgOtB4ff2jJI-182" source="5phcaH57rgOtB4ff2jJI-184" target="5phcaH57rgOtB4ff2jJI-185" edge="1">
          <mxGeometry relative="1" as="geometry" />
        </mxCell>
        <mxCell id="5phcaH57rgOtB4ff2jJI-187" value="l&lt;sub style=&quot;font-size: 13px;&quot;&gt;4&lt;/sub&gt;" style="ellipse;whiteSpace=wrap;html=1;fontStyle=1;fontSize=13;" parent="5phcaH57rgOtB4ff2jJI-182" vertex="1">
          <mxGeometry x="180" y="10" width="40" height="40" as="geometry" />
        </mxCell>
        <mxCell id="5phcaH57rgOtB4ff2jJI-188" value="" style="edgeStyle=orthogonalEdgeStyle;rounded=0;orthogonalLoop=1;jettySize=auto;html=1;" parent="5phcaH57rgOtB4ff2jJI-182" source="5phcaH57rgOtB4ff2jJI-185" target="5phcaH57rgOtB4ff2jJI-187" edge="1">
          <mxGeometry relative="1" as="geometry" />
        </mxCell>
        <mxCell id="5phcaH57rgOtB4ff2jJI-189" value="l&lt;sub style=&quot;font-size: 13px;&quot;&gt;5&lt;/sub&gt;" style="ellipse;whiteSpace=wrap;html=1;fontStyle=1;fontSize=13;" parent="5phcaH57rgOtB4ff2jJI-182" vertex="1">
          <mxGeometry x="260" y="10" width="40" height="40" as="geometry" />
        </mxCell>
        <mxCell id="5phcaH57rgOtB4ff2jJI-190" value="" style="edgeStyle=orthogonalEdgeStyle;rounded=0;orthogonalLoop=1;jettySize=auto;html=1;" parent="5phcaH57rgOtB4ff2jJI-182" source="5phcaH57rgOtB4ff2jJI-187" target="5phcaH57rgOtB4ff2jJI-189" edge="1">
          <mxGeometry relative="1" as="geometry" />
        </mxCell>
        <mxCell id="5phcaH57rgOtB4ff2jJI-191" value="l&lt;sub style=&quot;font-size: 13px;&quot;&gt;4&lt;/sub&gt;" style="ellipse;whiteSpace=wrap;html=1;fontStyle=1;fontSize=13;" parent="5phcaH57rgOtB4ff2jJI-182" vertex="1">
          <mxGeometry x="335" y="10" width="40" height="40" as="geometry" />
        </mxCell>
        <mxCell id="5phcaH57rgOtB4ff2jJI-192" value="" style="edgeStyle=orthogonalEdgeStyle;rounded=0;orthogonalLoop=1;jettySize=auto;html=1;" parent="5phcaH57rgOtB4ff2jJI-182" source="5phcaH57rgOtB4ff2jJI-189" target="5phcaH57rgOtB4ff2jJI-191" edge="1">
          <mxGeometry relative="1" as="geometry" />
        </mxCell>
        <mxCell id="5phcaH57rgOtB4ff2jJI-193" value="l&lt;sub style=&quot;font-size: 13px;&quot;&gt;6&lt;/sub&gt;" style="ellipse;whiteSpace=wrap;html=1;fontStyle=1;fontSize=13;" parent="5phcaH57rgOtB4ff2jJI-182" vertex="1">
          <mxGeometry x="420" y="10" width="40" height="40" as="geometry" />
        </mxCell>
        <mxCell id="5phcaH57rgOtB4ff2jJI-194" value="" style="edgeStyle=orthogonalEdgeStyle;rounded=0;orthogonalLoop=1;jettySize=auto;html=1;" parent="5phcaH57rgOtB4ff2jJI-182" source="5phcaH57rgOtB4ff2jJI-191" target="5phcaH57rgOtB4ff2jJI-193" edge="1">
          <mxGeometry relative="1" as="geometry" />
        </mxCell>
        <mxCell id="5phcaH57rgOtB4ff2jJI-198" value="" style="group;strokeColor=default;" parent="1" vertex="1" connectable="0">
          <mxGeometry x="440" y="1140" width="480" height="100" as="geometry" />
        </mxCell>
        <mxCell id="5phcaH57rgOtB4ff2jJI-199" value="Path is realizable and ends with a previously handled cycle. No expansion here." style="text;html=1;strokeColor=none;fillColor=none;align=center;verticalAlign=middle;whiteSpace=wrap;rounded=0;" parent="5phcaH57rgOtB4ff2jJI-198" vertex="1">
          <mxGeometry y="60" width="480" height="40" as="geometry" />
        </mxCell>
        <mxCell id="5phcaH57rgOtB4ff2jJI-200" value="" style="group;" parent="5phcaH57rgOtB4ff2jJI-198" vertex="1" connectable="0">
          <mxGeometry width="480" height="60" as="geometry" />
        </mxCell>
        <mxCell id="5phcaH57rgOtB4ff2jJI-201" value="" style="rounded=0;whiteSpace=wrap;html=1;" parent="5phcaH57rgOtB4ff2jJI-200" vertex="1">
          <mxGeometry width="480" height="60" as="geometry" />
        </mxCell>
        <mxCell id="5phcaH57rgOtB4ff2jJI-202" value="l&lt;sub style=&quot;font-size: 13px;&quot;&gt;0&lt;/sub&gt;" style="ellipse;whiteSpace=wrap;html=1;fontStyle=1;fontSize=13;" parent="5phcaH57rgOtB4ff2jJI-200" vertex="1">
          <mxGeometry x="20" y="10" width="40" height="40" as="geometry" />
        </mxCell>
        <mxCell id="5phcaH57rgOtB4ff2jJI-203" value="l&lt;sub style=&quot;font-size: 13px;&quot;&gt;1&lt;/sub&gt;" style="ellipse;whiteSpace=wrap;html=1;fontStyle=1;fontSize=13;" parent="5phcaH57rgOtB4ff2jJI-200" vertex="1">
          <mxGeometry x="100" y="10" width="40" height="40" as="geometry" />
        </mxCell>
        <mxCell id="5phcaH57rgOtB4ff2jJI-204" value="" style="edgeStyle=orthogonalEdgeStyle;rounded=0;orthogonalLoop=1;jettySize=auto;html=1;" parent="5phcaH57rgOtB4ff2jJI-200" source="5phcaH57rgOtB4ff2jJI-202" target="5phcaH57rgOtB4ff2jJI-203" edge="1">
          <mxGeometry relative="1" as="geometry" />
        </mxCell>
        <mxCell id="5phcaH57rgOtB4ff2jJI-205" value="l&lt;sub style=&quot;font-size: 13px;&quot;&gt;4&lt;/sub&gt;" style="ellipse;whiteSpace=wrap;html=1;fontStyle=1;fontSize=13;" parent="5phcaH57rgOtB4ff2jJI-200" vertex="1">
          <mxGeometry x="180" y="10" width="40" height="40" as="geometry" />
        </mxCell>
        <mxCell id="5phcaH57rgOtB4ff2jJI-206" value="" style="edgeStyle=orthogonalEdgeStyle;rounded=0;orthogonalLoop=1;jettySize=auto;html=1;" parent="5phcaH57rgOtB4ff2jJI-200" source="5phcaH57rgOtB4ff2jJI-203" target="5phcaH57rgOtB4ff2jJI-205" edge="1">
          <mxGeometry relative="1" as="geometry" />
        </mxCell>
        <mxCell id="5phcaH57rgOtB4ff2jJI-207" value="l&lt;sub style=&quot;font-size: 13px;&quot;&gt;5&lt;/sub&gt;" style="ellipse;whiteSpace=wrap;html=1;fontStyle=1;fontSize=13;" parent="5phcaH57rgOtB4ff2jJI-200" vertex="1">
          <mxGeometry x="260" y="10" width="40" height="40" as="geometry" />
        </mxCell>
        <mxCell id="5phcaH57rgOtB4ff2jJI-208" value="" style="edgeStyle=orthogonalEdgeStyle;rounded=0;orthogonalLoop=1;jettySize=auto;html=1;" parent="5phcaH57rgOtB4ff2jJI-200" source="5phcaH57rgOtB4ff2jJI-205" target="5phcaH57rgOtB4ff2jJI-207" edge="1">
          <mxGeometry relative="1" as="geometry" />
        </mxCell>
        <mxCell id="5phcaH57rgOtB4ff2jJI-209" value="l&lt;sub style=&quot;font-size: 13px;&quot;&gt;4&lt;/sub&gt;" style="ellipse;whiteSpace=wrap;html=1;fontStyle=1;fontSize=13;" parent="5phcaH57rgOtB4ff2jJI-200" vertex="1">
          <mxGeometry x="335" y="10" width="40" height="40" as="geometry" />
        </mxCell>
        <mxCell id="5phcaH57rgOtB4ff2jJI-210" value="" style="edgeStyle=orthogonalEdgeStyle;rounded=0;orthogonalLoop=1;jettySize=auto;html=1;" parent="5phcaH57rgOtB4ff2jJI-200" source="5phcaH57rgOtB4ff2jJI-207" target="5phcaH57rgOtB4ff2jJI-209" edge="1">
          <mxGeometry relative="1" as="geometry" />
        </mxCell>
        <mxCell id="5phcaH57rgOtB4ff2jJI-211" value="l&lt;sub style=&quot;font-size: 13px;&quot;&gt;5&lt;/sub&gt;" style="ellipse;whiteSpace=wrap;html=1;fontStyle=1;fontSize=13;" parent="5phcaH57rgOtB4ff2jJI-200" vertex="1">
          <mxGeometry x="420" y="10" width="40" height="40" as="geometry" />
        </mxCell>
        <mxCell id="5phcaH57rgOtB4ff2jJI-212" value="" style="edgeStyle=orthogonalEdgeStyle;rounded=0;orthogonalLoop=1;jettySize=auto;html=1;" parent="5phcaH57rgOtB4ff2jJI-200" source="5phcaH57rgOtB4ff2jJI-209" target="5phcaH57rgOtB4ff2jJI-211" edge="1">
          <mxGeometry relative="1" as="geometry" />
        </mxCell>
        <mxCell id="5phcaH57rgOtB4ff2jJI-229" value="" style="group;strokeColor=default;" parent="1" vertex="1" connectable="0">
          <mxGeometry x="400" y="1320" width="560" height="100" as="geometry" />
        </mxCell>
        <mxCell id="5phcaH57rgOtB4ff2jJI-213" value="" style="group;fillColor=#f8cecc;strokeColor=#b85450;" parent="5phcaH57rgOtB4ff2jJI-229" vertex="1" connectable="0">
          <mxGeometry width="560" height="60" as="geometry" />
        </mxCell>
        <mxCell id="5phcaH57rgOtB4ff2jJI-214" value="" style="rounded=0;whiteSpace=wrap;html=1;fillColor=#f8cecc;strokeColor=#b85450;" parent="5phcaH57rgOtB4ff2jJI-213" vertex="1">
          <mxGeometry width="560" height="60" as="geometry" />
        </mxCell>
        <mxCell id="5phcaH57rgOtB4ff2jJI-215" value="l&lt;sub style=&quot;font-size: 13px;&quot;&gt;0&lt;/sub&gt;" style="ellipse;whiteSpace=wrap;html=1;fontStyle=1;fontSize=13;" parent="5phcaH57rgOtB4ff2jJI-213" vertex="1">
          <mxGeometry x="20" y="10" width="40" height="40" as="geometry" />
        </mxCell>
        <mxCell id="5phcaH57rgOtB4ff2jJI-216" value="l&lt;sub style=&quot;font-size: 13px;&quot;&gt;1&lt;/sub&gt;" style="ellipse;whiteSpace=wrap;html=1;fontStyle=1;fontSize=13;" parent="5phcaH57rgOtB4ff2jJI-213" vertex="1">
          <mxGeometry x="100" y="10" width="40" height="40" as="geometry" />
        </mxCell>
        <mxCell id="5phcaH57rgOtB4ff2jJI-217" value="" style="edgeStyle=orthogonalEdgeStyle;rounded=0;orthogonalLoop=1;jettySize=auto;html=1;" parent="5phcaH57rgOtB4ff2jJI-213" source="5phcaH57rgOtB4ff2jJI-215" target="5phcaH57rgOtB4ff2jJI-216" edge="1">
          <mxGeometry relative="1" as="geometry" />
        </mxCell>
        <mxCell id="5phcaH57rgOtB4ff2jJI-218" value="l&lt;sub style=&quot;font-size: 13px;&quot;&gt;4&lt;/sub&gt;" style="ellipse;whiteSpace=wrap;html=1;fontStyle=1;fontSize=13;" parent="5phcaH57rgOtB4ff2jJI-213" vertex="1">
          <mxGeometry x="180" y="10" width="40" height="40" as="geometry" />
        </mxCell>
        <mxCell id="5phcaH57rgOtB4ff2jJI-219" value="" style="edgeStyle=orthogonalEdgeStyle;rounded=0;orthogonalLoop=1;jettySize=auto;html=1;" parent="5phcaH57rgOtB4ff2jJI-213" source="5phcaH57rgOtB4ff2jJI-216" target="5phcaH57rgOtB4ff2jJI-218" edge="1">
          <mxGeometry relative="1" as="geometry" />
        </mxCell>
        <mxCell id="5phcaH57rgOtB4ff2jJI-220" value="l&lt;sub style=&quot;font-size: 13px;&quot;&gt;5&lt;/sub&gt;" style="ellipse;whiteSpace=wrap;html=1;fontStyle=1;fontSize=13;" parent="5phcaH57rgOtB4ff2jJI-213" vertex="1">
          <mxGeometry x="260" y="10" width="40" height="40" as="geometry" />
        </mxCell>
        <mxCell id="5phcaH57rgOtB4ff2jJI-221" value="" style="edgeStyle=orthogonalEdgeStyle;rounded=0;orthogonalLoop=1;jettySize=auto;html=1;" parent="5phcaH57rgOtB4ff2jJI-213" source="5phcaH57rgOtB4ff2jJI-218" target="5phcaH57rgOtB4ff2jJI-220" edge="1">
          <mxGeometry relative="1" as="geometry" />
        </mxCell>
        <mxCell id="5phcaH57rgOtB4ff2jJI-222" value="l&lt;sub style=&quot;font-size: 13px;&quot;&gt;4&lt;/sub&gt;" style="ellipse;whiteSpace=wrap;html=1;fontStyle=1;fontSize=13;" parent="5phcaH57rgOtB4ff2jJI-213" vertex="1">
          <mxGeometry x="335" y="10" width="40" height="40" as="geometry" />
        </mxCell>
        <mxCell id="5phcaH57rgOtB4ff2jJI-223" value="" style="edgeStyle=orthogonalEdgeStyle;rounded=0;orthogonalLoop=1;jettySize=auto;html=1;" parent="5phcaH57rgOtB4ff2jJI-213" source="5phcaH57rgOtB4ff2jJI-220" target="5phcaH57rgOtB4ff2jJI-222" edge="1">
          <mxGeometry relative="1" as="geometry" />
        </mxCell>
        <mxCell id="5phcaH57rgOtB4ff2jJI-224" value="l&lt;sub style=&quot;font-size: 13px;&quot;&gt;5&lt;/sub&gt;" style="ellipse;whiteSpace=wrap;html=1;fontStyle=1;fontSize=13;" parent="5phcaH57rgOtB4ff2jJI-213" vertex="1">
          <mxGeometry x="420" y="10" width="40" height="40" as="geometry" />
        </mxCell>
        <mxCell id="5phcaH57rgOtB4ff2jJI-225" value="" style="edgeStyle=orthogonalEdgeStyle;rounded=0;orthogonalLoop=1;jettySize=auto;html=1;" parent="5phcaH57rgOtB4ff2jJI-213" source="5phcaH57rgOtB4ff2jJI-222" target="5phcaH57rgOtB4ff2jJI-224" edge="1">
          <mxGeometry relative="1" as="geometry" />
        </mxCell>
        <mxCell id="5phcaH57rgOtB4ff2jJI-226" value="l&lt;sub style=&quot;font-size: 13px;&quot;&gt;7&lt;/sub&gt;" style="ellipse;whiteSpace=wrap;html=1;fontStyle=1;fontSize=13;" parent="5phcaH57rgOtB4ff2jJI-213" vertex="1">
          <mxGeometry x="500" y="10" width="40" height="40" as="geometry" />
        </mxCell>
        <mxCell id="5phcaH57rgOtB4ff2jJI-227" value="" style="edgeStyle=orthogonalEdgeStyle;rounded=0;orthogonalLoop=1;jettySize=auto;html=1;" parent="5phcaH57rgOtB4ff2jJI-213" source="5phcaH57rgOtB4ff2jJI-224" target="5phcaH57rgOtB4ff2jJI-226" edge="1">
          <mxGeometry relative="1" as="geometry" />
        </mxCell>
        <mxCell id="5phcaH57rgOtB4ff2jJI-228" value="Path is unrealizable. Cut this branch here" style="text;html=1;strokeColor=none;fillColor=none;align=center;verticalAlign=middle;whiteSpace=wrap;rounded=0;" parent="5phcaH57rgOtB4ff2jJI-229" vertex="1">
          <mxGeometry y="60" width="560" height="40" as="geometry" />
        </mxCell>
        <mxCell id="5phcaH57rgOtB4ff2jJI-230" value="" style="endArrow=classic;html=1;rounded=0;exitX=0.25;exitY=1;exitDx=0;exitDy=0;entryX=0.75;entryY=0;entryDx=0;entryDy=0;" parent="1" source="5phcaH57rgOtB4ff2jJI-158" target="5phcaH57rgOtB4ff2jJI-183" edge="1">
          <mxGeometry width="50" height="50" relative="1" as="geometry">
            <mxPoint x="80" y="1390" as="sourcePoint" />
            <mxPoint x="130" y="1340" as="targetPoint" />
          </mxGeometry>
        </mxCell>
        <mxCell id="5phcaH57rgOtB4ff2jJI-232" value="" style="endArrow=classic;html=1;rounded=0;entryX=0.5;entryY=0;entryDx=0;entryDy=0;exitX=0.5;exitY=1;exitDx=0;exitDy=0;" parent="1" source="5phcaH57rgOtB4ff2jJI-158" target="5phcaH57rgOtB4ff2jJI-201" edge="1">
          <mxGeometry width="50" height="50" relative="1" as="geometry">
            <mxPoint x="730" y="1090" as="sourcePoint" />
            <mxPoint x="980" y="1170" as="targetPoint" />
          </mxGeometry>
        </mxCell>
        <mxCell id="5phcaH57rgOtB4ff2jJI-233" value="" style="endArrow=classic;html=1;rounded=0;entryX=0.5;entryY=0;entryDx=0;entryDy=0;exitX=0.5;exitY=1;exitDx=0;exitDy=0;" parent="1" source="5phcaH57rgOtB4ff2jJI-199" target="5phcaH57rgOtB4ff2jJI-214" edge="1">
          <mxGeometry width="50" height="50" relative="1" as="geometry">
            <mxPoint x="720" y="1260" as="sourcePoint" />
            <mxPoint x="100" y="1330" as="targetPoint" />
          </mxGeometry>
        </mxCell>
        <mxCell id="5phcaH57rgOtB4ff2jJI-234" value="" style="group;strokeColor=default;fillColor=none;" parent="1" vertex="1" connectable="0">
          <mxGeometry x="-300" y="1320" width="560" height="100" as="geometry" />
        </mxCell>
        <mxCell id="5phcaH57rgOtB4ff2jJI-235" value="" style="group;fillColor=#f8cecc;strokeColor=#b85450;" parent="5phcaH57rgOtB4ff2jJI-234" vertex="1" connectable="0">
          <mxGeometry width="560" height="60" as="geometry" />
        </mxCell>
        <mxCell id="5phcaH57rgOtB4ff2jJI-236" value="" style="rounded=0;whiteSpace=wrap;html=1;fillColor=#f8cecc;strokeColor=#b85450;" parent="5phcaH57rgOtB4ff2jJI-235" vertex="1">
          <mxGeometry width="560" height="60" as="geometry" />
        </mxCell>
        <mxCell id="5phcaH57rgOtB4ff2jJI-237" value="l&lt;sub style=&quot;font-size: 13px;&quot;&gt;0&lt;/sub&gt;" style="ellipse;whiteSpace=wrap;html=1;fontStyle=1;fontSize=13;" parent="5phcaH57rgOtB4ff2jJI-235" vertex="1">
          <mxGeometry x="20" y="10" width="40" height="40" as="geometry" />
        </mxCell>
        <mxCell id="5phcaH57rgOtB4ff2jJI-238" value="l&lt;sub style=&quot;font-size: 13px;&quot;&gt;1&lt;/sub&gt;" style="ellipse;whiteSpace=wrap;html=1;fontStyle=1;fontSize=13;" parent="5phcaH57rgOtB4ff2jJI-235" vertex="1">
          <mxGeometry x="100" y="10" width="40" height="40" as="geometry" />
        </mxCell>
        <mxCell id="5phcaH57rgOtB4ff2jJI-239" value="" style="edgeStyle=orthogonalEdgeStyle;rounded=0;orthogonalLoop=1;jettySize=auto;html=1;" parent="5phcaH57rgOtB4ff2jJI-235" source="5phcaH57rgOtB4ff2jJI-237" target="5phcaH57rgOtB4ff2jJI-238" edge="1">
          <mxGeometry relative="1" as="geometry" />
        </mxCell>
        <mxCell id="5phcaH57rgOtB4ff2jJI-240" value="l&lt;sub style=&quot;font-size: 13px;&quot;&gt;4&lt;/sub&gt;" style="ellipse;whiteSpace=wrap;html=1;fontStyle=1;fontSize=13;" parent="5phcaH57rgOtB4ff2jJI-235" vertex="1">
          <mxGeometry x="180" y="10" width="40" height="40" as="geometry" />
        </mxCell>
        <mxCell id="5phcaH57rgOtB4ff2jJI-241" value="" style="edgeStyle=orthogonalEdgeStyle;rounded=0;orthogonalLoop=1;jettySize=auto;html=1;" parent="5phcaH57rgOtB4ff2jJI-235" source="5phcaH57rgOtB4ff2jJI-238" target="5phcaH57rgOtB4ff2jJI-240" edge="1">
          <mxGeometry relative="1" as="geometry" />
        </mxCell>
        <mxCell id="5phcaH57rgOtB4ff2jJI-242" value="l&lt;sub style=&quot;font-size: 13px;&quot;&gt;5&lt;/sub&gt;" style="ellipse;whiteSpace=wrap;html=1;fontStyle=1;fontSize=13;" parent="5phcaH57rgOtB4ff2jJI-235" vertex="1">
          <mxGeometry x="260" y="10" width="40" height="40" as="geometry" />
        </mxCell>
        <mxCell id="5phcaH57rgOtB4ff2jJI-243" value="" style="edgeStyle=orthogonalEdgeStyle;rounded=0;orthogonalLoop=1;jettySize=auto;html=1;" parent="5phcaH57rgOtB4ff2jJI-235" source="5phcaH57rgOtB4ff2jJI-240" target="5phcaH57rgOtB4ff2jJI-242" edge="1">
          <mxGeometry relative="1" as="geometry" />
        </mxCell>
        <mxCell id="5phcaH57rgOtB4ff2jJI-244" value="l&lt;sub style=&quot;font-size: 13px;&quot;&gt;4&lt;/sub&gt;" style="ellipse;whiteSpace=wrap;html=1;fontStyle=1;fontSize=13;" parent="5phcaH57rgOtB4ff2jJI-235" vertex="1">
          <mxGeometry x="335" y="10" width="40" height="40" as="geometry" />
        </mxCell>
        <mxCell id="5phcaH57rgOtB4ff2jJI-245" value="" style="edgeStyle=orthogonalEdgeStyle;rounded=0;orthogonalLoop=1;jettySize=auto;html=1;" parent="5phcaH57rgOtB4ff2jJI-235" source="5phcaH57rgOtB4ff2jJI-242" target="5phcaH57rgOtB4ff2jJI-244" edge="1">
          <mxGeometry relative="1" as="geometry" />
        </mxCell>
        <mxCell id="5phcaH57rgOtB4ff2jJI-246" value="l&lt;sub style=&quot;font-size: 13px;&quot;&gt;5&lt;/sub&gt;" style="ellipse;whiteSpace=wrap;html=1;fontStyle=1;fontSize=13;" parent="5phcaH57rgOtB4ff2jJI-235" vertex="1">
          <mxGeometry x="420" y="10" width="40" height="40" as="geometry" />
        </mxCell>
        <mxCell id="5phcaH57rgOtB4ff2jJI-247" value="" style="edgeStyle=orthogonalEdgeStyle;rounded=0;orthogonalLoop=1;jettySize=auto;html=1;" parent="5phcaH57rgOtB4ff2jJI-235" source="5phcaH57rgOtB4ff2jJI-244" target="5phcaH57rgOtB4ff2jJI-246" edge="1">
          <mxGeometry relative="1" as="geometry" />
        </mxCell>
        <mxCell id="5phcaH57rgOtB4ff2jJI-248" value="l&lt;sub style=&quot;font-size: 13px;&quot;&gt;4&lt;/sub&gt;" style="ellipse;whiteSpace=wrap;html=1;fontStyle=1;fontSize=13;" parent="5phcaH57rgOtB4ff2jJI-235" vertex="1">
          <mxGeometry x="500" y="10" width="40" height="40" as="geometry" />
        </mxCell>
        <mxCell id="5phcaH57rgOtB4ff2jJI-249" value="" style="edgeStyle=orthogonalEdgeStyle;rounded=0;orthogonalLoop=1;jettySize=auto;html=1;" parent="5phcaH57rgOtB4ff2jJI-235" source="5phcaH57rgOtB4ff2jJI-246" target="5phcaH57rgOtB4ff2jJI-248" edge="1">
          <mxGeometry relative="1" as="geometry" />
        </mxCell>
        <mxCell id="5phcaH57rgOtB4ff2jJI-250" value="l&lt;sub&gt;4&lt;/sub&gt; appears three times. Do not add this path to the stack." style="text;html=1;strokeColor=none;fillColor=none;align=center;verticalAlign=middle;whiteSpace=wrap;rounded=0;" parent="5phcaH57rgOtB4ff2jJI-234" vertex="1">
          <mxGeometry y="60" width="560" height="40" as="geometry" />
        </mxCell>
        <mxCell id="5phcaH57rgOtB4ff2jJI-251" value="" style="endArrow=classic;html=1;rounded=0;exitX=0.25;exitY=1;exitDx=0;exitDy=0;entryX=0.75;entryY=0;entryDx=0;entryDy=0;dashed=1;" parent="1" source="5phcaH57rgOtB4ff2jJI-199" target="5phcaH57rgOtB4ff2jJI-236" edge="1">
          <mxGeometry width="50" height="50" relative="1" as="geometry">
            <mxPoint x="80" y="1510" as="sourcePoint" />
            <mxPoint x="130" y="1460" as="targetPoint" />
          </mxGeometry>
        </mxCell>
        <mxCell id="5phcaH57rgOtB4ff2jJI-253" value="" style="group;" parent="1" vertex="1" connectable="0">
          <mxGeometry x="1480" y="1140" width="470" height="60" as="geometry" />
        </mxCell>
        <mxCell id="5phcaH57rgOtB4ff2jJI-254" value="" style="rounded=0;whiteSpace=wrap;html=1;" parent="5phcaH57rgOtB4ff2jJI-253" vertex="1">
          <mxGeometry width="470" height="60" as="geometry" />
        </mxCell>
        <mxCell id="5phcaH57rgOtB4ff2jJI-255" value="l&lt;sub style=&quot;font-size: 13px;&quot;&gt;0&lt;/sub&gt;" style="ellipse;whiteSpace=wrap;html=1;fontStyle=1;fontSize=13;" parent="5phcaH57rgOtB4ff2jJI-253" vertex="1">
          <mxGeometry x="20" y="10" width="40" height="40" as="geometry" />
        </mxCell>
        <mxCell id="5phcaH57rgOtB4ff2jJI-256" value="l&lt;sub style=&quot;font-size: 13px;&quot;&gt;1&lt;/sub&gt;" style="ellipse;whiteSpace=wrap;html=1;fontStyle=1;fontSize=13;" parent="5phcaH57rgOtB4ff2jJI-253" vertex="1">
          <mxGeometry x="100" y="10" width="40" height="40" as="geometry" />
        </mxCell>
        <mxCell id="5phcaH57rgOtB4ff2jJI-257" value="" style="edgeStyle=orthogonalEdgeStyle;rounded=0;orthogonalLoop=1;jettySize=auto;html=1;" parent="5phcaH57rgOtB4ff2jJI-253" source="5phcaH57rgOtB4ff2jJI-255" target="5phcaH57rgOtB4ff2jJI-256" edge="1">
          <mxGeometry relative="1" as="geometry" />
        </mxCell>
        <mxCell id="5phcaH57rgOtB4ff2jJI-258" value="l&lt;sub style=&quot;font-size: 13px;&quot;&gt;4&lt;/sub&gt;" style="ellipse;whiteSpace=wrap;html=1;fontStyle=1;fontSize=13;fillColor=#d5e8d4;strokeColor=#82b366;" parent="5phcaH57rgOtB4ff2jJI-253" vertex="1">
          <mxGeometry x="180" y="10" width="40" height="40" as="geometry" />
        </mxCell>
        <mxCell id="5phcaH57rgOtB4ff2jJI-259" value="" style="edgeStyle=orthogonalEdgeStyle;rounded=0;orthogonalLoop=1;jettySize=auto;html=1;" parent="5phcaH57rgOtB4ff2jJI-253" source="5phcaH57rgOtB4ff2jJI-256" target="5phcaH57rgOtB4ff2jJI-258" edge="1">
          <mxGeometry relative="1" as="geometry" />
        </mxCell>
        <mxCell id="5phcaH57rgOtB4ff2jJI-260" value="l&lt;sub style=&quot;font-size: 13px;&quot;&gt;5&lt;/sub&gt;" style="ellipse;whiteSpace=wrap;html=1;fontStyle=1;fontSize=13;fillColor=#d5e8d4;strokeColor=#82b366;" parent="5phcaH57rgOtB4ff2jJI-253" vertex="1">
          <mxGeometry x="260" y="10" width="40" height="40" as="geometry" />
        </mxCell>
        <mxCell id="5phcaH57rgOtB4ff2jJI-261" value="" style="edgeStyle=orthogonalEdgeStyle;rounded=0;orthogonalLoop=1;jettySize=auto;html=1;" parent="5phcaH57rgOtB4ff2jJI-253" source="5phcaH57rgOtB4ff2jJI-258" target="5phcaH57rgOtB4ff2jJI-260" edge="1">
          <mxGeometry relative="1" as="geometry" />
        </mxCell>
        <mxCell id="5phcaH57rgOtB4ff2jJI-262" value="l&lt;sub style=&quot;font-size: 13px;&quot;&gt;4&lt;/sub&gt;" style="ellipse;whiteSpace=wrap;html=1;fontStyle=1;fontSize=13;" parent="5phcaH57rgOtB4ff2jJI-253" vertex="1">
          <mxGeometry x="335" y="10" width="40" height="40" as="geometry" />
        </mxCell>
        <mxCell id="5phcaH57rgOtB4ff2jJI-263" value="" style="edgeStyle=orthogonalEdgeStyle;rounded=0;orthogonalLoop=1;jettySize=auto;html=1;" parent="5phcaH57rgOtB4ff2jJI-253" source="5phcaH57rgOtB4ff2jJI-260" target="5phcaH57rgOtB4ff2jJI-262" edge="1">
          <mxGeometry relative="1" as="geometry" />
        </mxCell>
        <mxCell id="5phcaH57rgOtB4ff2jJI-266" value="l&lt;sub style=&quot;font-size: 13px;&quot;&gt;5&lt;/sub&gt;" style="ellipse;whiteSpace=wrap;html=1;fontStyle=1;fontSize=13;" parent="5phcaH57rgOtB4ff2jJI-253" vertex="1">
          <mxGeometry x="420" y="10" width="40" height="40" as="geometry" />
        </mxCell>
        <mxCell id="5phcaH57rgOtB4ff2jJI-267" value="" style="edgeStyle=orthogonalEdgeStyle;rounded=0;orthogonalLoop=1;jettySize=auto;html=1;" parent="5phcaH57rgOtB4ff2jJI-253" source="5phcaH57rgOtB4ff2jJI-262" target="5phcaH57rgOtB4ff2jJI-266" edge="1">
          <mxGeometry relative="1" as="geometry" />
        </mxCell>
        <mxCell id="5phcaH57rgOtB4ff2jJI-300" value="" style="group" parent="1" vertex="1" connectable="0">
          <mxGeometry x="1700" y="1320" width="540" height="100" as="geometry" />
        </mxCell>
        <mxCell id="5phcaH57rgOtB4ff2jJI-284" value="" style="group;" parent="5phcaH57rgOtB4ff2jJI-300" vertex="1" connectable="0">
          <mxGeometry width="540" height="60" as="geometry" />
        </mxCell>
        <mxCell id="5phcaH57rgOtB4ff2jJI-285" value="" style="rounded=0;whiteSpace=wrap;html=1;fillColor=#f8cecc;strokeColor=#b85450;" parent="5phcaH57rgOtB4ff2jJI-284" vertex="1">
          <mxGeometry width="540" height="60" as="geometry" />
        </mxCell>
        <mxCell id="5phcaH57rgOtB4ff2jJI-286" value="l&lt;sub style=&quot;font-size: 13px;&quot;&gt;0&lt;/sub&gt;" style="ellipse;whiteSpace=wrap;html=1;fontStyle=1;fontSize=13;" parent="5phcaH57rgOtB4ff2jJI-284" vertex="1">
          <mxGeometry x="20" y="10" width="40" height="40" as="geometry" />
        </mxCell>
        <mxCell id="5phcaH57rgOtB4ff2jJI-287" value="l&lt;sub style=&quot;font-size: 13px;&quot;&gt;1&lt;/sub&gt;" style="ellipse;whiteSpace=wrap;html=1;fontStyle=1;fontSize=13;" parent="5phcaH57rgOtB4ff2jJI-284" vertex="1">
          <mxGeometry x="100" y="10" width="40" height="40" as="geometry" />
        </mxCell>
        <mxCell id="5phcaH57rgOtB4ff2jJI-288" value="" style="edgeStyle=orthogonalEdgeStyle;rounded=0;orthogonalLoop=1;jettySize=auto;html=1;" parent="5phcaH57rgOtB4ff2jJI-284" source="5phcaH57rgOtB4ff2jJI-286" target="5phcaH57rgOtB4ff2jJI-287" edge="1">
          <mxGeometry relative="1" as="geometry" />
        </mxCell>
        <mxCell id="5phcaH57rgOtB4ff2jJI-289" value="l&lt;sub style=&quot;font-size: 13px;&quot;&gt;4&lt;/sub&gt;" style="ellipse;whiteSpace=wrap;html=1;fontStyle=1;fontSize=13;fillColor=#d5e8d4;strokeColor=#82b366;" parent="5phcaH57rgOtB4ff2jJI-284" vertex="1">
          <mxGeometry x="180" y="10" width="40" height="40" as="geometry" />
        </mxCell>
        <mxCell id="5phcaH57rgOtB4ff2jJI-290" value="" style="edgeStyle=orthogonalEdgeStyle;rounded=0;orthogonalLoop=1;jettySize=auto;html=1;" parent="5phcaH57rgOtB4ff2jJI-284" source="5phcaH57rgOtB4ff2jJI-287" target="5phcaH57rgOtB4ff2jJI-289" edge="1">
          <mxGeometry relative="1" as="geometry" />
        </mxCell>
        <mxCell id="5phcaH57rgOtB4ff2jJI-291" value="l&lt;sub style=&quot;font-size: 13px;&quot;&gt;5&lt;/sub&gt;" style="ellipse;whiteSpace=wrap;html=1;fontStyle=1;fontSize=13;fillColor=#d5e8d4;strokeColor=#82b366;" parent="5phcaH57rgOtB4ff2jJI-284" vertex="1">
          <mxGeometry x="260" y="10" width="40" height="40" as="geometry" />
        </mxCell>
        <mxCell id="5phcaH57rgOtB4ff2jJI-292" value="" style="edgeStyle=orthogonalEdgeStyle;rounded=0;orthogonalLoop=1;jettySize=auto;html=1;" parent="5phcaH57rgOtB4ff2jJI-284" source="5phcaH57rgOtB4ff2jJI-289" target="5phcaH57rgOtB4ff2jJI-291" edge="1">
          <mxGeometry relative="1" as="geometry" />
        </mxCell>
        <mxCell id="5phcaH57rgOtB4ff2jJI-293" value="l&lt;sub style=&quot;font-size: 13px;&quot;&gt;4&lt;/sub&gt;" style="ellipse;whiteSpace=wrap;html=1;fontStyle=1;fontSize=13;" parent="5phcaH57rgOtB4ff2jJI-284" vertex="1">
          <mxGeometry x="335" y="10" width="40" height="40" as="geometry" />
        </mxCell>
        <mxCell id="5phcaH57rgOtB4ff2jJI-294" value="" style="edgeStyle=orthogonalEdgeStyle;rounded=0;orthogonalLoop=1;jettySize=auto;html=1;" parent="5phcaH57rgOtB4ff2jJI-284" source="5phcaH57rgOtB4ff2jJI-291" target="5phcaH57rgOtB4ff2jJI-293" edge="1">
          <mxGeometry relative="1" as="geometry" />
        </mxCell>
        <mxCell id="5phcaH57rgOtB4ff2jJI-295" value="l&lt;sub style=&quot;font-size: 13px;&quot;&gt;5&lt;/sub&gt;" style="ellipse;whiteSpace=wrap;html=1;fontStyle=1;fontSize=13;" parent="5phcaH57rgOtB4ff2jJI-284" vertex="1">
          <mxGeometry x="420" y="10" width="40" height="40" as="geometry" />
        </mxCell>
        <mxCell id="5phcaH57rgOtB4ff2jJI-296" value="" style="edgeStyle=orthogonalEdgeStyle;rounded=0;orthogonalLoop=1;jettySize=auto;html=1;" parent="5phcaH57rgOtB4ff2jJI-284" source="5phcaH57rgOtB4ff2jJI-293" target="5phcaH57rgOtB4ff2jJI-295" edge="1">
          <mxGeometry relative="1" as="geometry" />
        </mxCell>
        <mxCell id="5phcaH57rgOtB4ff2jJI-297" value="l&lt;sub style=&quot;font-size: 13px;&quot;&gt;7&lt;/sub&gt;" style="ellipse;whiteSpace=wrap;html=1;fontStyle=1;fontSize=13;" parent="5phcaH57rgOtB4ff2jJI-284" vertex="1">
          <mxGeometry x="490" y="10" width="40" height="40" as="geometry" />
        </mxCell>
        <mxCell id="5phcaH57rgOtB4ff2jJI-298" value="" style="edgeStyle=orthogonalEdgeStyle;rounded=0;orthogonalLoop=1;jettySize=auto;html=1;" parent="5phcaH57rgOtB4ff2jJI-284" source="5phcaH57rgOtB4ff2jJI-295" target="5phcaH57rgOtB4ff2jJI-297" edge="1">
          <mxGeometry relative="1" as="geometry" />
        </mxCell>
        <mxCell id="5phcaH57rgOtB4ff2jJI-299" value="Path is realizable and ends in unsafe location l&lt;sub&gt;7&lt;/sub&gt; &lt;br&gt;Make it unrealizable and cut this branch here " style="text;html=1;strokeColor=none;fillColor=none;align=center;verticalAlign=middle;whiteSpace=wrap;rounded=0;" parent="5phcaH57rgOtB4ff2jJI-300" vertex="1">
          <mxGeometry y="60" width="540" height="40" as="geometry" />
        </mxCell>
        <mxCell id="5phcaH57rgOtB4ff2jJI-301" value="" style="endArrow=classic;html=1;rounded=0;exitX=0.25;exitY=1;exitDx=0;exitDy=0;entryX=0.25;entryY=0;entryDx=0;entryDy=0;" parent="1" source="5phcaH57rgOtB4ff2jJI-159" target="5phcaH57rgOtB4ff2jJI-270" edge="1">
          <mxGeometry width="50" height="50" relative="1" as="geometry">
            <mxPoint x="1690" y="890" as="sourcePoint" />
            <mxPoint x="1270" y="1120" as="targetPoint" />
          </mxGeometry>
        </mxCell>
        <mxCell id="5phcaH57rgOtB4ff2jJI-302" value="" style="endArrow=classic;html=1;rounded=0;entryX=0.25;entryY=0;entryDx=0;entryDy=0;exitX=0.75;exitY=1;exitDx=0;exitDy=0;" parent="1" source="5phcaH57rgOtB4ff2jJI-159" target="5phcaH57rgOtB4ff2jJI-254" edge="1">
          <mxGeometry width="50" height="50" relative="1" as="geometry">
            <mxPoint x="1440" y="1060" as="sourcePoint" />
            <mxPoint x="1710" y="960" as="targetPoint" />
          </mxGeometry>
        </mxCell>
        <mxCell id="5phcaH57rgOtB4ff2jJI-303" value="" style="endArrow=classic;html=1;rounded=0;entryX=0.25;entryY=0;entryDx=0;entryDy=0;exitX=0.75;exitY=1;exitDx=0;exitDy=0;" parent="1" source="5phcaH57rgOtB4ff2jJI-254" target="5phcaH57rgOtB4ff2jJI-285" edge="1">
          <mxGeometry width="50" height="50" relative="1" as="geometry">
            <mxPoint x="1790" y="1190" as="sourcePoint" />
            <mxPoint x="1260" y="1280" as="targetPoint" />
          </mxGeometry>
        </mxCell>
        <mxCell id="5phcaH57rgOtB4ff2jJI-304" value="" style="group;strokeColor=default;" parent="1" vertex="1" connectable="0">
          <mxGeometry x="1100" y="1320" width="540" height="100" as="geometry" />
        </mxCell>
        <mxCell id="5phcaH57rgOtB4ff2jJI-305" value="" style="group;" parent="5phcaH57rgOtB4ff2jJI-304" vertex="1" connectable="0">
          <mxGeometry width="540" height="60" as="geometry" />
        </mxCell>
        <mxCell id="5phcaH57rgOtB4ff2jJI-306" value="" style="rounded=0;whiteSpace=wrap;html=1;fillColor=#f8cecc;strokeColor=#b85450;" parent="5phcaH57rgOtB4ff2jJI-305" vertex="1">
          <mxGeometry width="540" height="60" as="geometry" />
        </mxCell>
        <mxCell id="5phcaH57rgOtB4ff2jJI-307" value="l&lt;sub style=&quot;font-size: 13px;&quot;&gt;0&lt;/sub&gt;" style="ellipse;whiteSpace=wrap;html=1;fontStyle=1;fontSize=13;" parent="5phcaH57rgOtB4ff2jJI-305" vertex="1">
          <mxGeometry x="20" y="10" width="40" height="40" as="geometry" />
        </mxCell>
        <mxCell id="5phcaH57rgOtB4ff2jJI-308" value="l&lt;sub style=&quot;font-size: 13px;&quot;&gt;1&lt;/sub&gt;" style="ellipse;whiteSpace=wrap;html=1;fontStyle=1;fontSize=13;" parent="5phcaH57rgOtB4ff2jJI-305" vertex="1">
          <mxGeometry x="100" y="10" width="40" height="40" as="geometry" />
        </mxCell>
        <mxCell id="5phcaH57rgOtB4ff2jJI-309" value="" style="edgeStyle=orthogonalEdgeStyle;rounded=0;orthogonalLoop=1;jettySize=auto;html=1;" parent="5phcaH57rgOtB4ff2jJI-305" source="5phcaH57rgOtB4ff2jJI-307" target="5phcaH57rgOtB4ff2jJI-308" edge="1">
          <mxGeometry relative="1" as="geometry" />
        </mxCell>
        <mxCell id="5phcaH57rgOtB4ff2jJI-310" value="l&lt;sub style=&quot;font-size: 13px;&quot;&gt;4&lt;/sub&gt;" style="ellipse;whiteSpace=wrap;html=1;fontStyle=1;fontSize=13;fillColor=#d5e8d4;strokeColor=#82b366;" parent="5phcaH57rgOtB4ff2jJI-305" vertex="1">
          <mxGeometry x="180" y="10" width="40" height="40" as="geometry" />
        </mxCell>
        <mxCell id="5phcaH57rgOtB4ff2jJI-311" value="" style="edgeStyle=orthogonalEdgeStyle;rounded=0;orthogonalLoop=1;jettySize=auto;html=1;" parent="5phcaH57rgOtB4ff2jJI-305" source="5phcaH57rgOtB4ff2jJI-308" target="5phcaH57rgOtB4ff2jJI-310" edge="1">
          <mxGeometry relative="1" as="geometry" />
        </mxCell>
        <mxCell id="5phcaH57rgOtB4ff2jJI-312" value="l&lt;sub style=&quot;font-size: 13px;&quot;&gt;5&lt;/sub&gt;" style="ellipse;whiteSpace=wrap;html=1;fontStyle=1;fontSize=13;fillColor=#d5e8d4;strokeColor=#82b366;" parent="5phcaH57rgOtB4ff2jJI-305" vertex="1">
          <mxGeometry x="260" y="10" width="40" height="40" as="geometry" />
        </mxCell>
        <mxCell id="5phcaH57rgOtB4ff2jJI-313" value="" style="edgeStyle=orthogonalEdgeStyle;rounded=0;orthogonalLoop=1;jettySize=auto;html=1;" parent="5phcaH57rgOtB4ff2jJI-305" source="5phcaH57rgOtB4ff2jJI-310" target="5phcaH57rgOtB4ff2jJI-312" edge="1">
          <mxGeometry relative="1" as="geometry" />
        </mxCell>
        <mxCell id="5phcaH57rgOtB4ff2jJI-314" value="l&lt;sub style=&quot;font-size: 13px;&quot;&gt;4&lt;/sub&gt;" style="ellipse;whiteSpace=wrap;html=1;fontStyle=1;fontSize=13;" parent="5phcaH57rgOtB4ff2jJI-305" vertex="1">
          <mxGeometry x="335" y="10" width="40" height="40" as="geometry" />
        </mxCell>
        <mxCell id="5phcaH57rgOtB4ff2jJI-315" value="" style="edgeStyle=orthogonalEdgeStyle;rounded=0;orthogonalLoop=1;jettySize=auto;html=1;" parent="5phcaH57rgOtB4ff2jJI-305" source="5phcaH57rgOtB4ff2jJI-312" target="5phcaH57rgOtB4ff2jJI-314" edge="1">
          <mxGeometry relative="1" as="geometry" />
        </mxCell>
        <mxCell id="5phcaH57rgOtB4ff2jJI-316" value="l&lt;sub style=&quot;font-size: 13px;&quot;&gt;5&lt;/sub&gt;" style="ellipse;whiteSpace=wrap;html=1;fontStyle=1;fontSize=13;" parent="5phcaH57rgOtB4ff2jJI-305" vertex="1">
          <mxGeometry x="420" y="10" width="40" height="40" as="geometry" />
        </mxCell>
        <mxCell id="5phcaH57rgOtB4ff2jJI-317" value="" style="edgeStyle=orthogonalEdgeStyle;rounded=0;orthogonalLoop=1;jettySize=auto;html=1;" parent="5phcaH57rgOtB4ff2jJI-305" source="5phcaH57rgOtB4ff2jJI-314" target="5phcaH57rgOtB4ff2jJI-316" edge="1">
          <mxGeometry relative="1" as="geometry" />
        </mxCell>
        <mxCell id="5phcaH57rgOtB4ff2jJI-318" value="l&lt;sub style=&quot;font-size: 13px;&quot;&gt;4&lt;/sub&gt;" style="ellipse;whiteSpace=wrap;html=1;fontStyle=1;fontSize=13;" parent="5phcaH57rgOtB4ff2jJI-305" vertex="1">
          <mxGeometry x="490" y="10" width="40" height="40" as="geometry" />
        </mxCell>
        <mxCell id="5phcaH57rgOtB4ff2jJI-319" value="" style="edgeStyle=orthogonalEdgeStyle;rounded=0;orthogonalLoop=1;jettySize=auto;html=1;" parent="5phcaH57rgOtB4ff2jJI-305" source="5phcaH57rgOtB4ff2jJI-316" target="5phcaH57rgOtB4ff2jJI-318" edge="1">
          <mxGeometry relative="1" as="geometry" />
        </mxCell>
        <mxCell id="5phcaH57rgOtB4ff2jJI-320" value="l&lt;sub&gt;4&lt;/sub&gt; appears three times. Do not add this path to the stack." style="text;html=1;strokeColor=none;fillColor=none;align=center;verticalAlign=middle;whiteSpace=wrap;rounded=0;" parent="5phcaH57rgOtB4ff2jJI-304" vertex="1">
          <mxGeometry y="60" width="540" height="40" as="geometry" />
        </mxCell>
        <mxCell id="5phcaH57rgOtB4ff2jJI-321" value="" style="endArrow=classic;html=1;rounded=0;entryX=0.75;entryY=0;entryDx=0;entryDy=0;exitX=0.25;exitY=1;exitDx=0;exitDy=0;" parent="1" source="5phcaH57rgOtB4ff2jJI-254" target="5phcaH57rgOtB4ff2jJI-306" edge="1">
          <mxGeometry width="50" height="50" relative="1" as="geometry">
            <mxPoint x="1530" y="1190" as="sourcePoint" />
            <mxPoint x="1870" y="1430" as="targetPoint" />
          </mxGeometry>
        </mxCell>
        <mxCell id="5phcaH57rgOtB4ff2jJI-329" value="" style="endArrow=classic;html=1;rounded=0;entryX=0.25;entryY=0;entryDx=0;entryDy=0;exitX=0.75;exitY=1;exitDx=0;exitDy=0;" parent="1" source="5phcaH57rgOtB4ff2jJI-92" target="5phcaH57rgOtB4ff2jJI-323" edge="1">
          <mxGeometry width="50" height="50" relative="1" as="geometry">
            <mxPoint x="470" y="570" as="sourcePoint" />
            <mxPoint x="79" y="637" as="targetPoint" />
          </mxGeometry>
        </mxCell>
        <mxCell id="5phcaH57rgOtB4ff2jJI-331" value="" style="group;strokeColor=default;" parent="1" vertex="1" connectable="0">
          <mxGeometry x="440" y="630" width="240" height="100" as="geometry" />
        </mxCell>
        <mxCell id="5phcaH57rgOtB4ff2jJI-322" value="" style="group" parent="5phcaH57rgOtB4ff2jJI-331" vertex="1" connectable="0">
          <mxGeometry width="240" height="60" as="geometry" />
        </mxCell>
        <mxCell id="5phcaH57rgOtB4ff2jJI-323" value="" style="rounded=0;whiteSpace=wrap;html=1;fillColor=#f8cecc;strokeColor=#b85450;" parent="5phcaH57rgOtB4ff2jJI-322" vertex="1">
          <mxGeometry width="240" height="60" as="geometry" />
        </mxCell>
        <mxCell id="5phcaH57rgOtB4ff2jJI-324" value="l&lt;sub style=&quot;font-size: 13px;&quot;&gt;0&lt;/sub&gt;" style="ellipse;whiteSpace=wrap;html=1;fontStyle=1;fontSize=13;" parent="5phcaH57rgOtB4ff2jJI-322" vertex="1">
          <mxGeometry x="20" y="10" width="40" height="40" as="geometry" />
        </mxCell>
        <mxCell id="5phcaH57rgOtB4ff2jJI-325" value="l&lt;sub style=&quot;font-size: 13px;&quot;&gt;1&lt;/sub&gt;" style="ellipse;whiteSpace=wrap;html=1;fontStyle=1;fontSize=13;" parent="5phcaH57rgOtB4ff2jJI-322" vertex="1">
          <mxGeometry x="100" y="10" width="40" height="40" as="geometry" />
        </mxCell>
        <mxCell id="5phcaH57rgOtB4ff2jJI-326" value="" style="edgeStyle=orthogonalEdgeStyle;rounded=0;orthogonalLoop=1;jettySize=auto;html=1;" parent="5phcaH57rgOtB4ff2jJI-322" source="5phcaH57rgOtB4ff2jJI-324" target="5phcaH57rgOtB4ff2jJI-325" edge="1">
          <mxGeometry relative="1" as="geometry" />
        </mxCell>
        <mxCell id="5phcaH57rgOtB4ff2jJI-327" value="l&lt;sub style=&quot;font-size: 13px;&quot;&gt;2&lt;/sub&gt;" style="ellipse;whiteSpace=wrap;html=1;fontStyle=1;fontSize=13;" parent="5phcaH57rgOtB4ff2jJI-322" vertex="1">
          <mxGeometry x="180" y="10" width="40" height="40" as="geometry" />
        </mxCell>
        <mxCell id="5phcaH57rgOtB4ff2jJI-328" value="" style="edgeStyle=orthogonalEdgeStyle;rounded=0;orthogonalLoop=1;jettySize=auto;html=1;" parent="5phcaH57rgOtB4ff2jJI-322" source="5phcaH57rgOtB4ff2jJI-325" target="5phcaH57rgOtB4ff2jJI-327" edge="1">
          <mxGeometry relative="1" as="geometry" />
        </mxCell>
        <mxCell id="5phcaH57rgOtB4ff2jJI-330" value="Path is unrealizable. Cut this branch here" style="text;html=1;strokeColor=none;fillColor=none;align=center;verticalAlign=middle;whiteSpace=wrap;rounded=0;" parent="5phcaH57rgOtB4ff2jJI-331" vertex="1">
          <mxGeometry y="60" width="240" height="40" as="geometry" />
        </mxCell>
        <mxCell id="5phcaH57rgOtB4ff2jJI-269" value="" style="group;fillColor=#f8cecc;strokeColor=#b85450;fontStyle=1" parent="1" vertex="1" connectable="0">
          <mxGeometry x="960" y="1140" width="470" height="60" as="geometry" />
        </mxCell>
        <mxCell id="5phcaH57rgOtB4ff2jJI-270" value="" style="rounded=0;whiteSpace=wrap;html=1;fillColor=#f8cecc;strokeColor=#b85450;fontStyle=1" parent="5phcaH57rgOtB4ff2jJI-269" vertex="1">
          <mxGeometry width="470" height="60" as="geometry" />
        </mxCell>
        <mxCell id="5phcaH57rgOtB4ff2jJI-271" value="l&lt;sub style=&quot;font-size: 13px;&quot;&gt;0&lt;/sub&gt;" style="ellipse;whiteSpace=wrap;html=1;fontStyle=1;fontSize=13;" parent="5phcaH57rgOtB4ff2jJI-269" vertex="1">
          <mxGeometry x="20" y="10" width="40" height="40" as="geometry" />
        </mxCell>
        <mxCell id="5phcaH57rgOtB4ff2jJI-272" value="l&lt;sub style=&quot;font-size: 13px;&quot;&gt;1&lt;/sub&gt;" style="ellipse;whiteSpace=wrap;html=1;fontStyle=1;fontSize=13;" parent="5phcaH57rgOtB4ff2jJI-269" vertex="1">
          <mxGeometry x="100" y="10" width="40" height="40" as="geometry" />
        </mxCell>
        <mxCell id="5phcaH57rgOtB4ff2jJI-273" value="" style="edgeStyle=orthogonalEdgeStyle;rounded=0;orthogonalLoop=1;jettySize=auto;html=1;fontStyle=1" parent="5phcaH57rgOtB4ff2jJI-269" source="5phcaH57rgOtB4ff2jJI-271" target="5phcaH57rgOtB4ff2jJI-272" edge="1">
          <mxGeometry relative="1" as="geometry" />
        </mxCell>
        <mxCell id="5phcaH57rgOtB4ff2jJI-274" value="l&lt;sub style=&quot;font-size: 13px;&quot;&gt;4&lt;/sub&gt;" style="ellipse;whiteSpace=wrap;html=1;fontStyle=1;fontSize=13;fillColor=#d5e8d4;strokeColor=#82b366;" parent="5phcaH57rgOtB4ff2jJI-269" vertex="1">
          <mxGeometry x="180" y="10" width="40" height="40" as="geometry" />
        </mxCell>
        <mxCell id="5phcaH57rgOtB4ff2jJI-275" value="" style="edgeStyle=orthogonalEdgeStyle;rounded=0;orthogonalLoop=1;jettySize=auto;html=1;fontStyle=1" parent="5phcaH57rgOtB4ff2jJI-269" source="5phcaH57rgOtB4ff2jJI-272" target="5phcaH57rgOtB4ff2jJI-274" edge="1">
          <mxGeometry relative="1" as="geometry" />
        </mxCell>
        <mxCell id="5phcaH57rgOtB4ff2jJI-276" value="l&lt;sub style=&quot;font-size: 13px;&quot;&gt;5&lt;/sub&gt;" style="ellipse;whiteSpace=wrap;html=1;fontStyle=1;fontSize=13;fillColor=#d5e8d4;strokeColor=#82b366;" parent="5phcaH57rgOtB4ff2jJI-269" vertex="1">
          <mxGeometry x="260" y="10" width="40" height="40" as="geometry" />
        </mxCell>
        <mxCell id="5phcaH57rgOtB4ff2jJI-277" value="" style="edgeStyle=orthogonalEdgeStyle;rounded=0;orthogonalLoop=1;jettySize=auto;html=1;fontStyle=1" parent="5phcaH57rgOtB4ff2jJI-269" source="5phcaH57rgOtB4ff2jJI-274" target="5phcaH57rgOtB4ff2jJI-276" edge="1">
          <mxGeometry relative="1" as="geometry" />
        </mxCell>
        <mxCell id="5phcaH57rgOtB4ff2jJI-278" value="l&lt;sub style=&quot;font-size: 13px;&quot;&gt;4&lt;/sub&gt;" style="ellipse;whiteSpace=wrap;html=1;fontStyle=1;fontSize=13;" parent="5phcaH57rgOtB4ff2jJI-269" vertex="1">
          <mxGeometry x="335" y="10" width="40" height="40" as="geometry" />
        </mxCell>
        <mxCell id="5phcaH57rgOtB4ff2jJI-279" value="" style="edgeStyle=orthogonalEdgeStyle;rounded=0;orthogonalLoop=1;jettySize=auto;html=1;fontStyle=1" parent="5phcaH57rgOtB4ff2jJI-269" source="5phcaH57rgOtB4ff2jJI-276" target="5phcaH57rgOtB4ff2jJI-278" edge="1">
          <mxGeometry relative="1" as="geometry" />
        </mxCell>
        <mxCell id="5phcaH57rgOtB4ff2jJI-280" value="l&lt;sub style=&quot;font-size: 13px;&quot;&gt;6&lt;/sub&gt;" style="ellipse;whiteSpace=wrap;html=1;fontStyle=1;fontSize=13;" parent="5phcaH57rgOtB4ff2jJI-269" vertex="1">
          <mxGeometry x="420" y="10" width="40" height="40" as="geometry" />
        </mxCell>
        <mxCell id="5phcaH57rgOtB4ff2jJI-281" value="" style="edgeStyle=orthogonalEdgeStyle;rounded=0;orthogonalLoop=1;jettySize=auto;html=1;fontStyle=1" parent="5phcaH57rgOtB4ff2jJI-269" source="5phcaH57rgOtB4ff2jJI-278" target="5phcaH57rgOtB4ff2jJI-280" edge="1">
          <mxGeometry relative="1" as="geometry" />
        </mxCell>
        <mxCell id="5phcaH57rgOtB4ff2jJI-282" value="Path is unrealizable. Cut this branch here" style="text;html=1;strokeColor=none;fillColor=none;align=center;verticalAlign=middle;whiteSpace=wrap;rounded=0;fontStyle=1" parent="1" vertex="1">
          <mxGeometry x="990" y="1190" width="470" height="40" as="geometry" />
        </mxCell>
      </root>
    </mxGraphModel>
  </diagram>
</mxfile>
